<?xml version="1.0" encoding="UTF-8"?>
<svg xmlns="http://www.w3.org/2000/svg" width="816" height="816" viewBox="0 0 816 816">
  <defs>
    <filter id="glow" x="-20%" y="-20%" width="140%" height="140%">
      <feGaussianBlur stdDeviation="1.4" result="b"/>
      <feMerge><feMergeNode in="b"/><feMergeNode in="SourceGraphic"/></feMerge>
    </filter>
  </defs>

  <!-- Background -->
  <rect width="816" height="816" fill="#060606"/>

  <!-- QR modules -->
  <g fill="#e01818" filter="url(#glow)">
    <rect x="49.7" y="49.7" width="18.3" height="18.3" rx="6.1"/>
    <rect x="71.6" y="49.7" width="18.3" height="18.3" rx="6.1"/>
    <rect x="93.4" y="49.7" width="18.3" height="18.3" rx="6.1"/>
    <rect x="115.2" y="49.7" width="18.3" height="18.3" rx="6.1"/>
    <rect x="137.0" y="49.7" width="18.3" height="18.3" rx="6.1"/>
    <rect x="158.8" y="49.7" width="18.3" height="18.3" rx="6.1"/>
    <rect x="180.7" y="49.7" width="18.3" height="18.3" rx="6.1"/>
    <rect x="246.1" y="49.7" width="18.3" height="18.3" rx="6.1"/>
    <rect x="289.7" y="49.7" width="18.3" height="18.3" rx="6.1"/>
    <rect x="420.7" y="49.7" width="18.3" height="18.3" rx="6.1"/>
    <rect x="442.5" y="49.7" width="18.3" height="18.3" rx="6.1"/>
    <rect x="464.3" y="49.7" width="18.3" height="18.3" rx="6.1"/>
    <rect x="507.9" y="49.7" width="18.3" height="18.3" rx="6.1"/>
    <rect x="529.7" y="49.7" width="18.3" height="18.3" rx="6.1"/>
    <rect x="573.4" y="49.7" width="18.3" height="18.3" rx="6.1"/>
    <rect x="617.0" y="49.7" width="18.3" height="18.3" rx="6.1"/>
    <rect x="638.8" y="49.7" width="18.3" height="18.3" rx="6.1"/>
    <rect x="660.7" y="49.7" width="18.3" height="18.3" rx="6.1"/>
    <rect x="682.5" y="49.7" width="18.3" height="18.3" rx="6.1"/>
    <rect x="704.3" y="49.7" width="18.3" height="18.3" rx="6.1"/>
    <rect x="726.1" y="49.7" width="18.3" height="18.3" rx="6.1"/>
    <rect x="747.9" y="49.7" width="18.3" height="18.3" rx="6.1"/>
    <rect x="49.7" y="71.6" width="18.3" height="18.3" rx="6.1"/>
    <rect x="180.7" y="71.6" width="18.3" height="18.3" rx="6.1"/>
    <rect x="246.1" y="71.6" width="18.3" height="18.3" rx="6.1"/>
    <rect x="333.4" y="71.6" width="18.3" height="18.3" rx="6.1"/>
    <rect x="377.0" y="71.6" width="18.3" height="18.3" rx="6.1"/>
    <rect x="420.7" y="71.6" width="18.3" height="18.3" rx="6.1"/>
    <rect x="486.1" y="71.6" width="18.3" height="18.3" rx="6.1"/>
    <rect x="529.7" y="71.6" width="18.3" height="18.3" rx="6.1"/>
    <rect x="573.4" y="71.6" width="18.3" height="18.3" rx="6.1"/>
    <rect x="617.0" y="71.6" width="18.3" height="18.3" rx="6.1"/>
    <rect x="747.9" y="71.6" width="18.3" height="18.3" rx="6.1"/>
    <rect x="49.7" y="93.4" width="18.3" height="18.3" rx="6.1"/>
    <rect x="93.4" y="93.4" width="18.3" height="18.3" rx="6.1"/>
    <rect x="115.2" y="93.4" width="18.3" height="18.3" rx="6.1"/>
    <rect x="137.0" y="93.4" width="18.3" height="18.3" rx="6.1"/>
    <rect x="180.7" y="93.4" width="18.3" height="18.3" rx="6.1"/>
    <rect x="224.3" y="93.4" width="18.3" height="18.3" rx="6.1"/>
    <rect x="246.1" y="93.4" width="18.3" height="18.3" rx="6.1"/>
    <rect x="289.7" y="93.4" width="18.3" height="18.3" rx="6.1"/>
    <rect x="333.4" y="93.4" width="18.3" height="18.3" rx="6.1"/>
    <rect x="377.0" y="93.4" width="18.3" height="18.3" rx="6.1"/>
    <rect x="420.7" y="93.4" width="18.3" height="18.3" rx="6.1"/>
    <rect x="442.5" y="93.4" width="18.3" height="18.3" rx="6.1"/>
    <rect x="464.3" y="93.4" width="18.3" height="18.3" rx="6.1"/>
    <rect x="507.9" y="93.4" width="18.3" height="18.3" rx="6.1"/>
    <rect x="529.7" y="93.4" width="18.3" height="18.3" rx="6.1"/>
    <rect x="551.6" y="93.4" width="18.3" height="18.3" rx="6.1"/>
    <rect x="573.4" y="93.4" width="18.3" height="18.3" rx="6.1"/>
    <rect x="617.0" y="93.4" width="18.3" height="18.3" rx="6.1"/>
    <rect x="660.7" y="93.4" width="18.3" height="18.3" rx="6.1"/>
    <rect x="682.5" y="93.4" width="18.3" height="18.3" rx="6.1"/>
    <rect x="704.3" y="93.4" width="18.3" height="18.3" rx="6.1"/>
    <rect x="747.9" y="93.4" width="18.3" height="18.3" rx="6.1"/>
    <rect x="49.7" y="115.2" width="18.3" height="18.3" rx="6.1"/>
    <rect x="93.4" y="115.2" width="18.3" height="18.3" rx="6.1"/>
    <rect x="115.2" y="115.2" width="18.3" height="18.3" rx="6.1"/>
    <rect x="137.0" y="115.2" width="18.3" height="18.3" rx="6.1"/>
    <rect x="180.7" y="115.2" width="18.3" height="18.3" rx="6.1"/>
    <rect x="224.3" y="115.2" width="18.3" height="18.3" rx="6.1"/>
    <rect x="267.9" y="115.2" width="18.3" height="18.3" rx="6.1"/>
    <rect x="311.6" y="115.2" width="18.3" height="18.3" rx="6.1"/>
    <rect x="333.4" y="115.2" width="18.3" height="18.3" rx="6.1"/>
    <rect x="398.8" y="115.2" width="18.3" height="18.3" rx="6.1"/>
    <rect x="442.5" y="115.2" width="18.3" height="18.3" rx="6.1"/>
    <rect x="464.3" y="115.2" width="18.3" height="18.3" rx="6.1"/>
    <rect x="486.1" y="115.2" width="18.3" height="18.3" rx="6.1"/>
    <rect x="507.9" y="115.2" width="18.3" height="18.3" rx="6.1"/>
    <rect x="551.6" y="115.2" width="18.3" height="18.3" rx="6.1"/>
    <rect x="573.4" y="115.2" width="18.3" height="18.3" rx="6.1"/>
    <rect x="617.0" y="115.2" width="18.3" height="18.3" rx="6.1"/>
    <rect x="660.7" y="115.2" width="18.3" height="18.3" rx="6.1"/>
    <rect x="682.5" y="115.2" width="18.3" height="18.3" rx="6.1"/>
    <rect x="704.3" y="115.2" width="18.3" height="18.3" rx="6.1"/>
    <rect x="747.9" y="115.2" width="18.3" height="18.3" rx="6.1"/>
    <rect x="49.7" y="137.0" width="18.3" height="18.3" rx="6.1"/>
    <rect x="93.4" y="137.0" width="18.3" height="18.3" rx="6.1"/>
    <rect x="115.2" y="137.0" width="18.3" height="18.3" rx="6.1"/>
    <rect x="137.0" y="137.0" width="18.3" height="18.3" rx="6.1"/>
    <rect x="180.7" y="137.0" width="18.3" height="18.3" rx="6.1"/>
    <rect x="246.1" y="137.0" width="18.3" height="18.3" rx="6.1"/>
    <rect x="311.6" y="137.0" width="18.3" height="18.3" rx="6.1"/>
    <rect x="377.0" y="137.0" width="18.3" height="18.3" rx="6.1"/>
    <rect x="398.8" y="137.0" width="18.3" height="18.3" rx="6.1"/>
    <rect x="442.5" y="137.0" width="18.3" height="18.3" rx="6.1"/>
    <rect x="464.3" y="137.0" width="18.3" height="18.3" rx="6.1"/>
    <rect x="551.6" y="137.0" width="18.3" height="18.3" rx="6.1"/>
    <rect x="617.0" y="137.0" width="18.3" height="18.3" rx="6.1"/>
    <rect x="660.7" y="137.0" width="18.3" height="18.3" rx="6.1"/>
    <rect x="682.5" y="137.0" width="18.3" height="18.3" rx="6.1"/>
    <rect x="704.3" y="137.0" width="18.3" height="18.3" rx="6.1"/>
    <rect x="747.9" y="137.0" width="18.3" height="18.3" rx="6.1"/>
    <rect x="49.7" y="158.8" width="18.3" height="18.3" rx="6.1"/>
    <rect x="180.7" y="158.8" width="18.3" height="18.3" rx="6.1"/>
    <rect x="246.1" y="158.8" width="18.3" height="18.3" rx="6.1"/>
    <rect x="267.9" y="158.8" width="18.3" height="18.3" rx="6.1"/>
    <rect x="289.7" y="158.8" width="18.3" height="18.3" rx="6.1"/>
    <rect x="311.6" y="158.8" width="18.3" height="18.3" rx="6.1"/>
    <rect x="333.4" y="158.8" width="18.3" height="18.3" rx="6.1"/>
    <rect x="355.2" y="158.8" width="18.3" height="18.3" rx="6.1"/>
    <rect x="377.0" y="158.8" width="18.3" height="18.3" rx="6.1"/>
    <rect x="486.1" y="158.8" width="18.3" height="18.3" rx="6.1"/>
    <rect x="573.4" y="158.8" width="18.3" height="18.3" rx="6.1"/>
    <rect x="617.0" y="158.8" width="18.3" height="18.3" rx="6.1"/>
    <rect x="747.9" y="158.8" width="18.3" height="18.3" rx="6.1"/>
    <rect x="49.7" y="180.7" width="18.3" height="18.3" rx="6.1"/>
    <rect x="71.6" y="180.7" width="18.3" height="18.3" rx="6.1"/>
    <rect x="93.4" y="180.7" width="18.3" height="18.3" rx="6.1"/>
    <rect x="115.2" y="180.7" width="18.3" height="18.3" rx="6.1"/>
    <rect x="137.0" y="180.7" width="18.3" height="18.3" rx="6.1"/>
    <rect x="158.8" y="180.7" width="18.3" height="18.3" rx="6.1"/>
    <rect x="180.7" y="180.7" width="18.3" height="18.3" rx="6.1"/>
    <rect x="224.3" y="180.7" width="18.3" height="18.3" rx="6.1"/>
    <rect x="267.9" y="180.7" width="18.3" height="18.3" rx="6.1"/>
    <rect x="311.6" y="180.7" width="18.3" height="18.3" rx="6.1"/>
    <rect x="355.2" y="180.7" width="18.3" height="18.3" rx="6.1"/>
    <rect x="398.8" y="180.7" width="18.3" height="18.3" rx="6.1"/>
    <rect x="442.5" y="180.7" width="18.3" height="18.3" rx="6.1"/>
    <rect x="486.1" y="180.7" width="18.3" height="18.3" rx="6.1"/>
    <rect x="529.7" y="180.7" width="18.3" height="18.3" rx="6.1"/>
    <rect x="573.4" y="180.7" width="18.3" height="18.3" rx="6.1"/>
    <rect x="617.0" y="180.7" width="18.3" height="18.3" rx="6.1"/>
    <rect x="638.8" y="180.7" width="18.3" height="18.3" rx="6.1"/>
    <rect x="660.7" y="180.7" width="18.3" height="18.3" rx="6.1"/>
    <rect x="682.5" y="180.7" width="18.3" height="18.3" rx="6.1"/>
    <rect x="704.3" y="180.7" width="18.3" height="18.3" rx="6.1"/>
    <rect x="726.1" y="180.7" width="18.3" height="18.3" rx="6.1"/>
    <rect x="747.9" y="180.7" width="18.3" height="18.3" rx="6.1"/>
    <rect x="246.1" y="202.5" width="18.3" height="18.3" rx="6.1"/>
    <rect x="311.6" y="202.5" width="18.3" height="18.3" rx="6.1"/>
    <rect x="333.4" y="202.5" width="18.3" height="18.3" rx="6.1"/>
    <rect x="355.2" y="202.5" width="18.3" height="18.3" rx="6.1"/>
    <rect x="398.8" y="202.5" width="18.3" height="18.3" rx="6.1"/>
    <rect x="486.1" y="202.5" width="18.3" height="18.3" rx="6.1"/>
    <rect x="551.6" y="202.5" width="18.3" height="18.3" rx="6.1"/>
    <rect x="115.2" y="224.3" width="18.3" height="18.3" rx="6.1"/>
    <rect x="137.0" y="224.3" width="18.3" height="18.3" rx="6.1"/>
    <rect x="180.7" y="224.3" width="18.3" height="18.3" rx="6.1"/>
    <rect x="202.5" y="224.3" width="18.3" height="18.3" rx="6.1"/>
    <rect x="246.1" y="224.3" width="18.3" height="18.3" rx="6.1"/>
    <rect x="355.2" y="224.3" width="18.3" height="18.3" rx="6.1"/>
    <rect x="398.8" y="224.3" width="18.3" height="18.3" rx="6.1"/>
    <rect x="420.7" y="224.3" width="18.3" height="18.3" rx="6.1"/>
    <rect x="464.3" y="224.3" width="18.3" height="18.3" rx="6.1"/>
    <rect x="486.1" y="224.3" width="18.3" height="18.3" rx="6.1"/>
    <rect x="529.7" y="224.3" width="18.3" height="18.3" rx="6.1"/>
    <rect x="551.6" y="224.3" width="18.3" height="18.3" rx="6.1"/>
    <rect x="573.4" y="224.3" width="18.3" height="18.3" rx="6.1"/>
    <rect x="682.5" y="224.3" width="18.3" height="18.3" rx="6.1"/>
    <rect x="704.3" y="224.3" width="18.3" height="18.3" rx="6.1"/>
    <rect x="71.6" y="246.1" width="18.3" height="18.3" rx="6.1"/>
    <rect x="137.0" y="246.1" width="18.3" height="18.3" rx="6.1"/>
    <rect x="158.8" y="246.1" width="18.3" height="18.3" rx="6.1"/>
    <rect x="224.3" y="246.1" width="18.3" height="18.3" rx="6.1"/>
    <rect x="246.1" y="246.1" width="18.3" height="18.3" rx="6.1"/>
    <rect x="267.9" y="246.1" width="18.3" height="18.3" rx="6.1"/>
    <rect x="289.7" y="246.1" width="18.3" height="18.3" rx="6.1"/>
    <rect x="333.4" y="246.1" width="18.3" height="18.3" rx="6.1"/>
    <rect x="355.2" y="246.1" width="18.3" height="18.3" rx="6.1"/>
    <rect x="377.0" y="246.1" width="18.3" height="18.3" rx="6.1"/>
    <rect x="398.8" y="246.1" width="18.3" height="18.3" rx="6.1"/>
    <rect x="420.7" y="246.1" width="18.3" height="18.3" rx="6.1"/>
    <rect x="442.5" y="246.1" width="18.3" height="18.3" rx="6.1"/>
    <rect x="486.1" y="246.1" width="18.3" height="18.3" rx="6.1"/>
    <rect x="529.7" y="246.1" width="18.3" height="18.3" rx="6.1"/>
    <rect x="551.6" y="246.1" width="18.3" height="18.3" rx="6.1"/>
    <rect x="595.2" y="246.1" width="18.3" height="18.3" rx="6.1"/>
    <rect x="638.8" y="246.1" width="18.3" height="18.3" rx="6.1"/>
    <rect x="660.7" y="246.1" width="18.3" height="18.3" rx="6.1"/>
    <rect x="682.5" y="246.1" width="18.3" height="18.3" rx="6.1"/>
    <rect x="71.6" y="267.9" width="18.3" height="18.3" rx="6.1"/>
    <rect x="180.7" y="267.9" width="18.3" height="18.3" rx="6.1"/>
    <rect x="267.9" y="267.9" width="18.3" height="18.3" rx="6.1"/>
    <rect x="333.4" y="267.9" width="18.3" height="18.3" rx="6.1"/>
    <rect x="377.0" y="267.9" width="18.3" height="18.3" rx="6.1"/>
    <rect x="398.8" y="267.9" width="18.3" height="18.3" rx="6.1"/>
    <rect x="442.5" y="267.9" width="18.3" height="18.3" rx="6.1"/>
    <rect x="507.9" y="267.9" width="18.3" height="18.3" rx="6.1"/>
    <rect x="551.6" y="267.9" width="18.3" height="18.3" rx="6.1"/>
    <rect x="617.0" y="267.9" width="18.3" height="18.3" rx="6.1"/>
    <rect x="638.8" y="267.9" width="18.3" height="18.3" rx="6.1"/>
    <rect x="682.5" y="267.9" width="18.3" height="18.3" rx="6.1"/>
    <rect x="726.1" y="267.9" width="18.3" height="18.3" rx="6.1"/>
    <rect x="747.9" y="267.9" width="18.3" height="18.3" rx="6.1"/>
    <rect x="71.6" y="289.7" width="18.3" height="18.3" rx="6.1"/>
    <rect x="93.4" y="289.7" width="18.3" height="18.3" rx="6.1"/>
    <rect x="289.7" y="289.7" width="18.3" height="18.3" rx="6.1"/>
    <rect x="398.8" y="289.7" width="18.3" height="18.3" rx="6.1"/>
    <rect x="464.3" y="289.7" width="18.3" height="18.3" rx="6.1"/>
    <rect x="551.6" y="289.7" width="18.3" height="18.3" rx="6.1"/>
    <rect x="595.2" y="289.7" width="18.3" height="18.3" rx="6.1"/>
    <rect x="617.0" y="289.7" width="18.3" height="18.3" rx="6.1"/>
    <rect x="638.8" y="289.7" width="18.3" height="18.3" rx="6.1"/>
    <rect x="660.7" y="289.7" width="18.3" height="18.3" rx="6.1"/>
    <rect x="704.3" y="289.7" width="18.3" height="18.3" rx="6.1"/>
    <rect x="137.0" y="311.6" width="18.3" height="18.3" rx="6.1"/>
    <rect x="180.7" y="311.6" width="18.3" height="18.3" rx="6.1"/>
    <rect x="202.5" y="311.6" width="18.3" height="18.3" rx="6.1"/>
    <rect x="246.1" y="311.6" width="18.3" height="18.3" rx="6.1"/>
    <rect x="267.9" y="311.6" width="18.3" height="18.3" rx="6.1"/>
    <rect x="355.2" y="311.6" width="18.3" height="18.3" rx="6.1"/>
    <rect x="377.0" y="311.6" width="18.3" height="18.3" rx="6.1"/>
    <rect x="398.8" y="311.6" width="18.3" height="18.3" rx="6.1"/>
    <rect x="507.9" y="311.6" width="18.3" height="18.3" rx="6.1"/>
    <rect x="529.7" y="311.6" width="18.3" height="18.3" rx="6.1"/>
    <rect x="551.6" y="311.6" width="18.3" height="18.3" rx="6.1"/>
    <rect x="617.0" y="311.6" width="18.3" height="18.3" rx="6.1"/>
    <rect x="638.8" y="311.6" width="18.3" height="18.3" rx="6.1"/>
    <rect x="660.7" y="311.6" width="18.3" height="18.3" rx="6.1"/>
    <rect x="726.1" y="311.6" width="18.3" height="18.3" rx="6.1"/>
    <rect x="71.6" y="333.4" width="18.3" height="18.3" rx="6.1"/>
    <rect x="115.2" y="333.4" width="18.3" height="18.3" rx="6.1"/>
    <rect x="137.0" y="333.4" width="18.3" height="18.3" rx="6.1"/>
    <rect x="311.6" y="333.4" width="18.3" height="18.3" rx="6.1"/>
    <rect x="398.8" y="333.4" width="18.3" height="18.3" rx="6.1"/>
    <rect x="420.7" y="333.4" width="18.3" height="18.3" rx="6.1"/>
    <rect x="464.3" y="333.4" width="18.3" height="18.3" rx="6.1"/>
    <rect x="486.1" y="333.4" width="18.3" height="18.3" rx="6.1"/>
    <rect x="507.9" y="333.4" width="18.3" height="18.3" rx="6.1"/>
    <rect x="529.7" y="333.4" width="18.3" height="18.3" rx="6.1"/>
    <rect x="551.6" y="333.4" width="18.3" height="18.3" rx="6.1"/>
    <rect x="595.2" y="333.4" width="18.3" height="18.3" rx="6.1"/>
    <rect x="704.3" y="333.4" width="18.3" height="18.3" rx="6.1"/>
    <rect x="726.1" y="333.4" width="18.3" height="18.3" rx="6.1"/>
    <rect x="93.4" y="355.2" width="18.3" height="18.3" rx="6.1"/>
    <rect x="137.0" y="355.2" width="18.3" height="18.3" rx="6.1"/>
    <rect x="180.7" y="355.2" width="18.3" height="18.3" rx="6.1"/>
    <rect x="377.0" y="355.2" width="18.3" height="18.3" rx="6.1"/>
    <rect x="442.5" y="355.2" width="18.3" height="18.3" rx="6.1"/>
    <rect x="573.4" y="355.2" width="18.3" height="18.3" rx="6.1"/>
    <rect x="595.2" y="355.2" width="18.3" height="18.3" rx="6.1"/>
    <rect x="704.3" y="355.2" width="18.3" height="18.3" rx="6.1"/>
    <rect x="115.2" y="377.0" width="18.3" height="18.3" rx="6.1"/>
    <rect x="333.4" y="377.0" width="18.3" height="18.3" rx="6.1"/>
    <rect x="355.2" y="377.0" width="18.3" height="18.3" rx="6.1"/>
    <rect x="420.7" y="377.0" width="18.3" height="18.3" rx="6.1"/>
    <rect x="551.6" y="377.0" width="18.3" height="18.3" rx="6.1"/>
    <rect x="638.8" y="377.0" width="18.3" height="18.3" rx="6.1"/>
    <rect x="682.5" y="377.0" width="18.3" height="18.3" rx="6.1"/>
    <rect x="704.3" y="377.0" width="18.3" height="18.3" rx="6.1"/>
    <rect x="726.1" y="377.0" width="18.3" height="18.3" rx="6.1"/>
    <rect x="747.9" y="377.0" width="18.3" height="18.3" rx="6.1"/>
    <rect x="49.7" y="398.8" width="18.3" height="18.3" rx="6.1"/>
    <rect x="71.6" y="398.8" width="18.3" height="18.3" rx="6.1"/>
    <rect x="93.4" y="398.8" width="18.3" height="18.3" rx="6.1"/>
    <rect x="115.2" y="398.8" width="18.3" height="18.3" rx="6.1"/>
    <rect x="158.8" y="398.8" width="18.3" height="18.3" rx="6.1"/>
    <rect x="180.7" y="398.8" width="18.3" height="18.3" rx="6.1"/>
    <rect x="246.1" y="398.8" width="18.3" height="18.3" rx="6.1"/>
    <rect x="267.9" y="398.8" width="18.3" height="18.3" rx="6.1"/>
    <rect x="333.4" y="398.8" width="18.3" height="18.3" rx="6.1"/>
    <rect x="377.0" y="398.8" width="18.3" height="18.3" rx="6.1"/>
    <rect x="398.8" y="398.8" width="18.3" height="18.3" rx="6.1"/>
    <rect x="442.5" y="398.8" width="18.3" height="18.3" rx="6.1"/>
    <rect x="595.2" y="398.8" width="18.3" height="18.3" rx="6.1"/>
    <rect x="617.0" y="398.8" width="18.3" height="18.3" rx="6.1"/>
    <rect x="660.7" y="398.8" width="18.3" height="18.3" rx="6.1"/>
    <rect x="726.1" y="398.8" width="18.3" height="18.3" rx="6.1"/>
    <rect x="49.7" y="420.7" width="18.3" height="18.3" rx="6.1"/>
    <rect x="93.4" y="420.7" width="18.3" height="18.3" rx="6.1"/>
    <rect x="115.2" y="420.7" width="18.3" height="18.3" rx="6.1"/>
    <rect x="158.8" y="420.7" width="18.3" height="18.3" rx="6.1"/>
    <rect x="224.3" y="420.7" width="18.3" height="18.3" rx="6.1"/>
    <rect x="246.1" y="420.7" width="18.3" height="18.3" rx="6.1"/>
    <rect x="289.7" y="420.7" width="18.3" height="18.3" rx="6.1"/>
    <rect x="311.6" y="420.7" width="18.3" height="18.3" rx="6.1"/>
    <rect x="355.2" y="420.7" width="18.3" height="18.3" rx="6.1"/>
    <rect x="420.7" y="420.7" width="18.3" height="18.3" rx="6.1"/>
    <rect x="442.5" y="420.7" width="18.3" height="18.3" rx="6.1"/>
    <rect x="486.1" y="420.7" width="18.3" height="18.3" rx="6.1"/>
    <rect x="507.9" y="420.7" width="18.3" height="18.3" rx="6.1"/>
    <rect x="529.7" y="420.7" width="18.3" height="18.3" rx="6.1"/>
    <rect x="573.4" y="420.7" width="18.3" height="18.3" rx="6.1"/>
    <rect x="617.0" y="420.7" width="18.3" height="18.3" rx="6.1"/>
    <rect x="638.8" y="420.7" width="18.3" height="18.3" rx="6.1"/>
    <rect x="660.7" y="420.7" width="18.3" height="18.3" rx="6.1"/>
    <rect x="682.5" y="420.7" width="18.3" height="18.3" rx="6.1"/>
    <rect x="726.1" y="420.7" width="18.3" height="18.3" rx="6.1"/>
    <rect x="747.9" y="420.7" width="18.3" height="18.3" rx="6.1"/>
    <rect x="49.7" y="442.5" width="18.3" height="18.3" rx="6.1"/>
    <rect x="137.0" y="442.5" width="18.3" height="18.3" rx="6.1"/>
    <rect x="158.8" y="442.5" width="18.3" height="18.3" rx="6.1"/>
    <rect x="180.7" y="442.5" width="18.3" height="18.3" rx="6.1"/>
    <rect x="224.3" y="442.5" width="18.3" height="18.3" rx="6.1"/>
    <rect x="246.1" y="442.5" width="18.3" height="18.3" rx="6.1"/>
    <rect x="289.7" y="442.5" width="18.3" height="18.3" rx="6.1"/>
    <rect x="333.4" y="442.5" width="18.3" height="18.3" rx="6.1"/>
    <rect x="355.2" y="442.5" width="18.3" height="18.3" rx="6.1"/>
    <rect x="377.0" y="442.5" width="18.3" height="18.3" rx="6.1"/>
    <rect x="420.7" y="442.5" width="18.3" height="18.3" rx="6.1"/>
    <rect x="486.1" y="442.5" width="18.3" height="18.3" rx="6.1"/>
    <rect x="507.9" y="442.5" width="18.3" height="18.3" rx="6.1"/>
    <rect x="529.7" y="442.5" width="18.3" height="18.3" rx="6.1"/>
    <rect x="551.6" y="442.5" width="18.3" height="18.3" rx="6.1"/>
    <rect x="660.7" y="442.5" width="18.3" height="18.3" rx="6.1"/>
    <rect x="682.5" y="442.5" width="18.3" height="18.3" rx="6.1"/>
    <rect x="704.3" y="442.5" width="18.3" height="18.3" rx="6.1"/>
    <rect x="747.9" y="442.5" width="18.3" height="18.3" rx="6.1"/>
    <rect x="49.7" y="464.3" width="18.3" height="18.3" rx="6.1"/>
    <rect x="71.6" y="464.3" width="18.3" height="18.3" rx="6.1"/>
    <rect x="158.8" y="464.3" width="18.3" height="18.3" rx="6.1"/>
    <rect x="202.5" y="464.3" width="18.3" height="18.3" rx="6.1"/>
    <rect x="224.3" y="464.3" width="18.3" height="18.3" rx="6.1"/>
    <rect x="246.1" y="464.3" width="18.3" height="18.3" rx="6.1"/>
    <rect x="289.7" y="464.3" width="18.3" height="18.3" rx="6.1"/>
    <rect x="311.6" y="464.3" width="18.3" height="18.3" rx="6.1"/>
    <rect x="377.0" y="464.3" width="18.3" height="18.3" rx="6.1"/>
    <rect x="442.5" y="464.3" width="18.3" height="18.3" rx="6.1"/>
    <rect x="464.3" y="464.3" width="18.3" height="18.3" rx="6.1"/>
    <rect x="529.7" y="464.3" width="18.3" height="18.3" rx="6.1"/>
    <rect x="551.6" y="464.3" width="18.3" height="18.3" rx="6.1"/>
    <rect x="573.4" y="464.3" width="18.3" height="18.3" rx="6.1"/>
    <rect x="595.2" y="464.3" width="18.3" height="18.3" rx="6.1"/>
    <rect x="638.8" y="464.3" width="18.3" height="18.3" rx="6.1"/>
    <rect x="682.5" y="464.3" width="18.3" height="18.3" rx="6.1"/>
    <rect x="704.3" y="464.3" width="18.3" height="18.3" rx="6.1"/>
    <rect x="747.9" y="464.3" width="18.3" height="18.3" rx="6.1"/>
    <rect x="49.7" y="486.1" width="18.3" height="18.3" rx="6.1"/>
    <rect x="71.6" y="486.1" width="18.3" height="18.3" rx="6.1"/>
    <rect x="93.4" y="486.1" width="18.3" height="18.3" rx="6.1"/>
    <rect x="115.2" y="486.1" width="18.3" height="18.3" rx="6.1"/>
    <rect x="137.0" y="486.1" width="18.3" height="18.3" rx="6.1"/>
    <rect x="158.8" y="486.1" width="18.3" height="18.3" rx="6.1"/>
    <rect x="180.7" y="486.1" width="18.3" height="18.3" rx="6.1"/>
    <rect x="202.5" y="486.1" width="18.3" height="18.3" rx="6.1"/>
    <rect x="224.3" y="486.1" width="18.3" height="18.3" rx="6.1"/>
    <rect x="333.4" y="486.1" width="18.3" height="18.3" rx="6.1"/>
    <rect x="355.2" y="486.1" width="18.3" height="18.3" rx="6.1"/>
    <rect x="377.0" y="486.1" width="18.3" height="18.3" rx="6.1"/>
    <rect x="398.8" y="486.1" width="18.3" height="18.3" rx="6.1"/>
    <rect x="442.5" y="486.1" width="18.3" height="18.3" rx="6.1"/>
    <rect x="464.3" y="486.1" width="18.3" height="18.3" rx="6.1"/>
    <rect x="617.0" y="486.1" width="18.3" height="18.3" rx="6.1"/>
    <rect x="638.8" y="486.1" width="18.3" height="18.3" rx="6.1"/>
    <rect x="682.5" y="486.1" width="18.3" height="18.3" rx="6.1"/>
    <rect x="726.1" y="486.1" width="18.3" height="18.3" rx="6.1"/>
    <rect x="49.7" y="507.9" width="18.3" height="18.3" rx="6.1"/>
    <rect x="71.6" y="507.9" width="18.3" height="18.3" rx="6.1"/>
    <rect x="115.2" y="507.9" width="18.3" height="18.3" rx="6.1"/>
    <rect x="137.0" y="507.9" width="18.3" height="18.3" rx="6.1"/>
    <rect x="158.8" y="507.9" width="18.3" height="18.3" rx="6.1"/>
    <rect x="202.5" y="507.9" width="18.3" height="18.3" rx="6.1"/>
    <rect x="224.3" y="507.9" width="18.3" height="18.3" rx="6.1"/>
    <rect x="267.9" y="507.9" width="18.3" height="18.3" rx="6.1"/>
    <rect x="289.7" y="507.9" width="18.3" height="18.3" rx="6.1"/>
    <rect x="333.4" y="507.9" width="18.3" height="18.3" rx="6.1"/>
    <rect x="355.2" y="507.9" width="18.3" height="18.3" rx="6.1"/>
    <rect x="398.8" y="507.9" width="18.3" height="18.3" rx="6.1"/>
    <rect x="420.7" y="507.9" width="18.3" height="18.3" rx="6.1"/>
    <rect x="464.3" y="507.9" width="18.3" height="18.3" rx="6.1"/>
    <rect x="507.9" y="507.9" width="18.3" height="18.3" rx="6.1"/>
    <rect x="529.7" y="507.9" width="18.3" height="18.3" rx="6.1"/>
    <rect x="573.4" y="507.9" width="18.3" height="18.3" rx="6.1"/>
    <rect x="617.0" y="507.9" width="18.3" height="18.3" rx="6.1"/>
    <rect x="638.8" y="507.9" width="18.3" height="18.3" rx="6.1"/>
    <rect x="660.7" y="507.9" width="18.3" height="18.3" rx="6.1"/>
    <rect x="49.7" y="529.7" width="18.3" height="18.3" rx="6.1"/>
    <rect x="93.4" y="529.7" width="18.3" height="18.3" rx="6.1"/>
    <rect x="115.2" y="529.7" width="18.3" height="18.3" rx="6.1"/>
    <rect x="137.0" y="529.7" width="18.3" height="18.3" rx="6.1"/>
    <rect x="158.8" y="529.7" width="18.3" height="18.3" rx="6.1"/>
    <rect x="180.7" y="529.7" width="18.3" height="18.3" rx="6.1"/>
    <rect x="202.5" y="529.7" width="18.3" height="18.3" rx="6.1"/>
    <rect x="333.4" y="529.7" width="18.3" height="18.3" rx="6.1"/>
    <rect x="398.8" y="529.7" width="18.3" height="18.3" rx="6.1"/>
    <rect x="420.7" y="529.7" width="18.3" height="18.3" rx="6.1"/>
    <rect x="442.5" y="529.7" width="18.3" height="18.3" rx="6.1"/>
    <rect x="464.3" y="529.7" width="18.3" height="18.3" rx="6.1"/>
    <rect x="529.7" y="529.7" width="18.3" height="18.3" rx="6.1"/>
    <rect x="551.6" y="529.7" width="18.3" height="18.3" rx="6.1"/>
    <rect x="617.0" y="529.7" width="18.3" height="18.3" rx="6.1"/>
    <rect x="704.3" y="529.7" width="18.3" height="18.3" rx="6.1"/>
    <rect x="747.9" y="529.7" width="18.3" height="18.3" rx="6.1"/>
    <rect x="49.7" y="551.6" width="18.3" height="18.3" rx="6.1"/>
    <rect x="202.5" y="551.6" width="18.3" height="18.3" rx="6.1"/>
    <rect x="246.1" y="551.6" width="18.3" height="18.3" rx="6.1"/>
    <rect x="267.9" y="551.6" width="18.3" height="18.3" rx="6.1"/>
    <rect x="398.8" y="551.6" width="18.3" height="18.3" rx="6.1"/>
    <rect x="442.5" y="551.6" width="18.3" height="18.3" rx="6.1"/>
    <rect x="464.3" y="551.6" width="18.3" height="18.3" rx="6.1"/>
    <rect x="529.7" y="551.6" width="18.3" height="18.3" rx="6.1"/>
    <rect x="551.6" y="551.6" width="18.3" height="18.3" rx="6.1"/>
    <rect x="573.4" y="551.6" width="18.3" height="18.3" rx="6.1"/>
    <rect x="638.8" y="551.6" width="18.3" height="18.3" rx="6.1"/>
    <rect x="682.5" y="551.6" width="18.3" height="18.3" rx="6.1"/>
    <rect x="704.3" y="551.6" width="18.3" height="18.3" rx="6.1"/>
    <rect x="726.1" y="551.6" width="18.3" height="18.3" rx="6.1"/>
    <rect x="747.9" y="551.6" width="18.3" height="18.3" rx="6.1"/>
    <rect x="49.7" y="573.4" width="18.3" height="18.3" rx="6.1"/>
    <rect x="71.6" y="573.4" width="18.3" height="18.3" rx="6.1"/>
    <rect x="115.2" y="573.4" width="18.3" height="18.3" rx="6.1"/>
    <rect x="137.0" y="573.4" width="18.3" height="18.3" rx="6.1"/>
    <rect x="180.7" y="573.4" width="18.3" height="18.3" rx="6.1"/>
    <rect x="246.1" y="573.4" width="18.3" height="18.3" rx="6.1"/>
    <rect x="267.9" y="573.4" width="18.3" height="18.3" rx="6.1"/>
    <rect x="289.7" y="573.4" width="18.3" height="18.3" rx="6.1"/>
    <rect x="311.6" y="573.4" width="18.3" height="18.3" rx="6.1"/>
    <rect x="355.2" y="573.4" width="18.3" height="18.3" rx="6.1"/>
    <rect x="398.8" y="573.4" width="18.3" height="18.3" rx="6.1"/>
    <rect x="442.5" y="573.4" width="18.3" height="18.3" rx="6.1"/>
    <rect x="486.1" y="573.4" width="18.3" height="18.3" rx="6.1"/>
    <rect x="551.6" y="573.4" width="18.3" height="18.3" rx="6.1"/>
    <rect x="573.4" y="573.4" width="18.3" height="18.3" rx="6.1"/>
    <rect x="595.2" y="573.4" width="18.3" height="18.3" rx="6.1"/>
    <rect x="617.0" y="573.4" width="18.3" height="18.3" rx="6.1"/>
    <rect x="638.8" y="573.4" width="18.3" height="18.3" rx="6.1"/>
    <rect x="660.7" y="573.4" width="18.3" height="18.3" rx="6.1"/>
    <rect x="682.5" y="573.4" width="18.3" height="18.3" rx="6.1"/>
    <rect x="726.1" y="573.4" width="18.3" height="18.3" rx="6.1"/>
    <rect x="224.3" y="595.2" width="18.3" height="18.3" rx="6.1"/>
    <rect x="246.1" y="595.2" width="18.3" height="18.3" rx="6.1"/>
    <rect x="267.9" y="595.2" width="18.3" height="18.3" rx="6.1"/>
    <rect x="289.7" y="595.2" width="18.3" height="18.3" rx="6.1"/>
    <rect x="311.6" y="595.2" width="18.3" height="18.3" rx="6.1"/>
    <rect x="333.4" y="595.2" width="18.3" height="18.3" rx="6.1"/>
    <rect x="377.0" y="595.2" width="18.3" height="18.3" rx="6.1"/>
    <rect x="398.8" y="595.2" width="18.3" height="18.3" rx="6.1"/>
    <rect x="464.3" y="595.2" width="18.3" height="18.3" rx="6.1"/>
    <rect x="507.9" y="595.2" width="18.3" height="18.3" rx="6.1"/>
    <rect x="573.4" y="595.2" width="18.3" height="18.3" rx="6.1"/>
    <rect x="660.7" y="595.2" width="18.3" height="18.3" rx="6.1"/>
    <rect x="682.5" y="595.2" width="18.3" height="18.3" rx="6.1"/>
    <rect x="704.3" y="595.2" width="18.3" height="18.3" rx="6.1"/>
    <rect x="726.1" y="595.2" width="18.3" height="18.3" rx="6.1"/>
    <rect x="49.7" y="617.0" width="18.3" height="18.3" rx="6.1"/>
    <rect x="71.6" y="617.0" width="18.3" height="18.3" rx="6.1"/>
    <rect x="93.4" y="617.0" width="18.3" height="18.3" rx="6.1"/>
    <rect x="115.2" y="617.0" width="18.3" height="18.3" rx="6.1"/>
    <rect x="137.0" y="617.0" width="18.3" height="18.3" rx="6.1"/>
    <rect x="158.8" y="617.0" width="18.3" height="18.3" rx="6.1"/>
    <rect x="180.7" y="617.0" width="18.3" height="18.3" rx="6.1"/>
    <rect x="224.3" y="617.0" width="18.3" height="18.3" rx="6.1"/>
    <rect x="246.1" y="617.0" width="18.3" height="18.3" rx="6.1"/>
    <rect x="267.9" y="617.0" width="18.3" height="18.3" rx="6.1"/>
    <rect x="355.2" y="617.0" width="18.3" height="18.3" rx="6.1"/>
    <rect x="398.8" y="617.0" width="18.3" height="18.3" rx="6.1"/>
    <rect x="442.5" y="617.0" width="18.3" height="18.3" rx="6.1"/>
    <rect x="551.6" y="617.0" width="18.3" height="18.3" rx="6.1"/>
    <rect x="573.4" y="617.0" width="18.3" height="18.3" rx="6.1"/>
    <rect x="617.0" y="617.0" width="18.3" height="18.3" rx="6.1"/>
    <rect x="660.7" y="617.0" width="18.3" height="18.3" rx="6.1"/>
    <rect x="49.7" y="638.8" width="18.3" height="18.3" rx="6.1"/>
    <rect x="180.7" y="638.8" width="18.3" height="18.3" rx="6.1"/>
    <rect x="289.7" y="638.8" width="18.3" height="18.3" rx="6.1"/>
    <rect x="398.8" y="638.8" width="18.3" height="18.3" rx="6.1"/>
    <rect x="464.3" y="638.8" width="18.3" height="18.3" rx="6.1"/>
    <rect x="486.1" y="638.8" width="18.3" height="18.3" rx="6.1"/>
    <rect x="507.9" y="638.8" width="18.3" height="18.3" rx="6.1"/>
    <rect x="529.7" y="638.8" width="18.3" height="18.3" rx="6.1"/>
    <rect x="551.6" y="638.8" width="18.3" height="18.3" rx="6.1"/>
    <rect x="573.4" y="638.8" width="18.3" height="18.3" rx="6.1"/>
    <rect x="660.7" y="638.8" width="18.3" height="18.3" rx="6.1"/>
    <rect x="682.5" y="638.8" width="18.3" height="18.3" rx="6.1"/>
    <rect x="704.3" y="638.8" width="18.3" height="18.3" rx="6.1"/>
    <rect x="726.1" y="638.8" width="18.3" height="18.3" rx="6.1"/>
    <rect x="49.7" y="660.7" width="18.3" height="18.3" rx="6.1"/>
    <rect x="93.4" y="660.7" width="18.3" height="18.3" rx="6.1"/>
    <rect x="115.2" y="660.7" width="18.3" height="18.3" rx="6.1"/>
    <rect x="137.0" y="660.7" width="18.3" height="18.3" rx="6.1"/>
    <rect x="180.7" y="660.7" width="18.3" height="18.3" rx="6.1"/>
    <rect x="224.3" y="660.7" width="18.3" height="18.3" rx="6.1"/>
    <rect x="267.9" y="660.7" width="18.3" height="18.3" rx="6.1"/>
    <rect x="311.6" y="660.7" width="18.3" height="18.3" rx="6.1"/>
    <rect x="333.4" y="660.7" width="18.3" height="18.3" rx="6.1"/>
    <rect x="377.0" y="660.7" width="18.3" height="18.3" rx="6.1"/>
    <rect x="464.3" y="660.7" width="18.3" height="18.3" rx="6.1"/>
    <rect x="486.1" y="660.7" width="18.3" height="18.3" rx="6.1"/>
    <rect x="507.9" y="660.7" width="18.3" height="18.3" rx="6.1"/>
    <rect x="529.7" y="660.7" width="18.3" height="18.3" rx="6.1"/>
    <rect x="551.6" y="660.7" width="18.3" height="18.3" rx="6.1"/>
    <rect x="573.4" y="660.7" width="18.3" height="18.3" rx="6.1"/>
    <rect x="595.2" y="660.7" width="18.3" height="18.3" rx="6.1"/>
    <rect x="617.0" y="660.7" width="18.3" height="18.3" rx="6.1"/>
    <rect x="638.8" y="660.7" width="18.3" height="18.3" rx="6.1"/>
    <rect x="660.7" y="660.7" width="18.3" height="18.3" rx="6.1"/>
    <rect x="682.5" y="660.7" width="18.3" height="18.3" rx="6.1"/>
    <rect x="726.1" y="660.7" width="18.3" height="18.3" rx="6.1"/>
    <rect x="49.7" y="682.5" width="18.3" height="18.3" rx="6.1"/>
    <rect x="93.4" y="682.5" width="18.3" height="18.3" rx="6.1"/>
    <rect x="115.2" y="682.5" width="18.3" height="18.3" rx="6.1"/>
    <rect x="137.0" y="682.5" width="18.3" height="18.3" rx="6.1"/>
    <rect x="180.7" y="682.5" width="18.3" height="18.3" rx="6.1"/>
    <rect x="224.3" y="682.5" width="18.3" height="18.3" rx="6.1"/>
    <rect x="246.1" y="682.5" width="18.3" height="18.3" rx="6.1"/>
    <rect x="311.6" y="682.5" width="18.3" height="18.3" rx="6.1"/>
    <rect x="333.4" y="682.5" width="18.3" height="18.3" rx="6.1"/>
    <rect x="377.0" y="682.5" width="18.3" height="18.3" rx="6.1"/>
    <rect x="442.5" y="682.5" width="18.3" height="18.3" rx="6.1"/>
    <rect x="507.9" y="682.5" width="18.3" height="18.3" rx="6.1"/>
    <rect x="529.7" y="682.5" width="18.3" height="18.3" rx="6.1"/>
    <rect x="595.2" y="682.5" width="18.3" height="18.3" rx="6.1"/>
    <rect x="638.8" y="682.5" width="18.3" height="18.3" rx="6.1"/>
    <rect x="682.5" y="682.5" width="18.3" height="18.3" rx="6.1"/>
    <rect x="704.3" y="682.5" width="18.3" height="18.3" rx="6.1"/>
    <rect x="726.1" y="682.5" width="18.3" height="18.3" rx="6.1"/>
    <rect x="49.7" y="704.3" width="18.3" height="18.3" rx="6.1"/>
    <rect x="93.4" y="704.3" width="18.3" height="18.3" rx="6.1"/>
    <rect x="115.2" y="704.3" width="18.3" height="18.3" rx="6.1"/>
    <rect x="137.0" y="704.3" width="18.3" height="18.3" rx="6.1"/>
    <rect x="180.7" y="704.3" width="18.3" height="18.3" rx="6.1"/>
    <rect x="246.1" y="704.3" width="18.3" height="18.3" rx="6.1"/>
    <rect x="289.7" y="704.3" width="18.3" height="18.3" rx="6.1"/>
    <rect x="311.6" y="704.3" width="18.3" height="18.3" rx="6.1"/>
    <rect x="355.2" y="704.3" width="18.3" height="18.3" rx="6.1"/>
    <rect x="398.8" y="704.3" width="18.3" height="18.3" rx="6.1"/>
    <rect x="420.7" y="704.3" width="18.3" height="18.3" rx="6.1"/>
    <rect x="442.5" y="704.3" width="18.3" height="18.3" rx="6.1"/>
    <rect x="464.3" y="704.3" width="18.3" height="18.3" rx="6.1"/>
    <rect x="529.7" y="704.3" width="18.3" height="18.3" rx="6.1"/>
    <rect x="551.6" y="704.3" width="18.3" height="18.3" rx="6.1"/>
    <rect x="573.4" y="704.3" width="18.3" height="18.3" rx="6.1"/>
    <rect x="660.7" y="704.3" width="18.3" height="18.3" rx="6.1"/>
    <rect x="682.5" y="704.3" width="18.3" height="18.3" rx="6.1"/>
    <rect x="704.3" y="704.3" width="18.3" height="18.3" rx="6.1"/>
    <rect x="726.1" y="704.3" width="18.3" height="18.3" rx="6.1"/>
    <rect x="747.9" y="704.3" width="18.3" height="18.3" rx="6.1"/>
    <rect x="49.7" y="726.1" width="18.3" height="18.3" rx="6.1"/>
    <rect x="180.7" y="726.1" width="18.3" height="18.3" rx="6.1"/>
    <rect x="333.4" y="726.1" width="18.3" height="18.3" rx="6.1"/>
    <rect x="355.2" y="726.1" width="18.3" height="18.3" rx="6.1"/>
    <rect x="377.0" y="726.1" width="18.3" height="18.3" rx="6.1"/>
    <rect x="464.3" y="726.1" width="18.3" height="18.3" rx="6.1"/>
    <rect x="486.1" y="726.1" width="18.3" height="18.3" rx="6.1"/>
    <rect x="507.9" y="726.1" width="18.3" height="18.3" rx="6.1"/>
    <rect x="595.2" y="726.1" width="18.3" height="18.3" rx="6.1"/>
    <rect x="617.0" y="726.1" width="18.3" height="18.3" rx="6.1"/>
    <rect x="704.3" y="726.1" width="18.3" height="18.3" rx="6.1"/>
    <rect x="726.1" y="726.1" width="18.3" height="18.3" rx="6.1"/>
    <rect x="747.9" y="726.1" width="18.3" height="18.3" rx="6.1"/>
    <rect x="49.7" y="747.9" width="18.3" height="18.3" rx="6.1"/>
    <rect x="71.6" y="747.9" width="18.3" height="18.3" rx="6.1"/>
    <rect x="93.4" y="747.9" width="18.3" height="18.3" rx="6.1"/>
    <rect x="115.2" y="747.9" width="18.3" height="18.3" rx="6.1"/>
    <rect x="137.0" y="747.9" width="18.3" height="18.3" rx="6.1"/>
    <rect x="158.8" y="747.9" width="18.3" height="18.3" rx="6.1"/>
    <rect x="180.7" y="747.9" width="18.3" height="18.3" rx="6.1"/>
    <rect x="246.1" y="747.9" width="18.3" height="18.3" rx="6.1"/>
    <rect x="267.9" y="747.9" width="18.3" height="18.3" rx="6.1"/>
    <rect x="311.6" y="747.9" width="18.3" height="18.3" rx="6.1"/>
    <rect x="333.4" y="747.9" width="18.3" height="18.3" rx="6.1"/>
    <rect x="377.0" y="747.9" width="18.3" height="18.3" rx="6.1"/>
    <rect x="442.5" y="747.9" width="18.3" height="18.3" rx="6.1"/>
    <rect x="464.3" y="747.9" width="18.3" height="18.3" rx="6.1"/>
    <rect x="486.1" y="747.9" width="18.3" height="18.3" rx="6.1"/>
    <rect x="507.9" y="747.9" width="18.3" height="18.3" rx="6.1"/>
    <rect x="551.6" y="747.9" width="18.3" height="18.3" rx="6.1"/>
    <rect x="573.4" y="747.9" width="18.3" height="18.3" rx="6.1"/>
    <rect x="660.7" y="747.9" width="18.3" height="18.3" rx="6.1"/>
  </g>
</svg>