<svg xmlns="http://www.w3.org/2000/svg" width="2048" height="2048" viewBox="0 0 49 49" shape-rendering="crispEdges"><path fill="#FFFFFF" d="M0 0h49v49H0z"/><path stroke="#000000" d="M8 8.5h7m2 0h1m1 0h1m5 0h3m1 0h2m1 0h1m1 0h7M8 9.5h1m5 0h1m2 0h1m3 0h1m1 0h1m1 0h1m2 0h1m1 0h1m1 0h1m1 0h1m5 0h1M8 10.5h1m1 0h3m1 0h1m1 0h2m1 0h1m1 0h1m1 0h1m1 0h3m1 0h4m1 0h1m1 0h3m1 0h1M8 11.5h1m1 0h3m1 0h1m1 0h1m1 0h1m1 0h2m2 0h1m1 0h4m1 0h2m1 0h1m1 0h3m1 0h1M8 12.5h1m1 0h3m1 0h1m2 0h1m2 0h1m2 0h2m1 0h2m3 0h1m2 0h1m1 0h3m1 0h1M8 13.5h1m5 0h1m2 0h7m4 0h1m3 0h1m1 0h1m5 0h1M8 14.5h7m1 0h1m1 0h1m1 0h1m1 0h1m1 0h1m1 0h1m1 0h1m1 0h1m1 0h1m1 0h7M17 15.5h1m2 0h3m1 0h1m3 0h1m2 0h1M11 16.5h2m1 0h2m1 0h1m4 0h1m1 0h2m1 0h2m1 0h3m4 0h2M9 17.5h1m2 0h2m2 0h4m1 0h6m1 0h1m1 0h2m1 0h1m1 0h3M9 18.5h1m4 0h1m3 0h1m2 0h1m1 0h2m1 0h1m2 0h1m1 0h1m2 0h2m1 0h1m1 0h2M9 19.5h2m8 0h1m4 0h1m2 0h1m3 0h1m1 0h4m1 0h1M12 20.5h1m1 0h2m1 0h2m3 0h3m4 0h3m2 0h3m2 0h1M9 21.5h1m1 0h2m7 0h1m3 0h2m1 0h5m1 0h1m4 0h2M10 22.5h1m1 0h1m1 0h1m8 0h1m2 0h1m5 0h2m4 0h1M11 23.5h1m9 0h2m2 0h1m5 0h1m3 0h1m1 0h4M8 24.5h4m1 0h2m2 0h2m2 0h1m1 0h2m1 0h1m6 0h2m1 0h1m2 0h1M8 25.5h1m1 0h2m1 0h1m2 0h2m1 0h2m1 0h1m2 0h2m1 0h3m1 0h1m1 0h4m1 0h2M8 26.5h1m3 0h3m1 0h2m1 0h1m1 0h3m1 0h1m2 0h4m4 0h3m1 0h1M8 27.5h2m3 0h1m1 0h3m1 0h2m2 0h1m2 0h2m2 0h4m1 0h1m1 0h2m1 0h1M8 28.5h9m4 0h4m1 0h2m6 0h2m1 0h1m1 0h1M8 29.5h2m1 0h3m1 0h2m1 0h2m1 0h2m1 0h2m1 0h1m1 0h2m1 0h1m1 0h3M8 30.5h1m1 0h6m5 0h1m2 0h4m2 0h2m2 0h1m3 0h1m1 0h1M8 31.5h1m6 0h1m1 0h2m5 0h1m1 0h2m2 0h3m2 0h1m1 0h4M8 32.5h2m1 0h2m1 0h1m2 0h4m1 0h1m1 0h1m1 0h1m1 0h1m2 0h7m1 0h1M16 33.5h6m1 0h2m2 0h1m1 0h1m2 0h1m3 0h4M8 34.5h7m1 0h3m3 0h1m1 0h1m1 0h1m4 0h2m1 0h1m1 0h1M8 35.5h1m5 0h1m4 0h1m4 0h1m2 0h6m3 0h4M8 36.5h1m1 0h3m1 0h1m1 0h1m1 0h1m1 0h2m1 0h1m3 0h11m1 0h1M8 37.5h1m1 0h3m1 0h1m1 0h2m2 0h2m1 0h1m2 0h1m2 0h2m2 0h1m1 0h1m1 0h3M8 38.5h1m1 0h3m1 0h1m2 0h1m1 0h2m1 0h1m1 0h4m2 0h3m3 0h5M8 39.5h1m5 0h1m6 0h3m3 0h3m3 0h2m3 0h3M8 40.5h7m2 0h2m1 0h2m1 0h1m2 0h4m1 0h2m3 0h1"/></svg>
