<?xml version="1.0" encoding="UTF-8"?>
<svg xmlns="http://www.w3.org/2000/svg" width="880" height="880" viewBox="0 0 880 880">
  <defs>
    <filter id="glow" x="-20%" y="-20%" width="140%" height="140%">
      <feGaussianBlur stdDeviation="1.4" result="b"/>
      <feMerge><feMergeNode in="b"/><feMergeNode in="SourceGraphic"/></feMerge>
    </filter>
  </defs>

  <!-- 1. Background -->
  <rect width="880" height="880" fill="#060606"/>

  <!-- 2. Full square QR (keeps all finder/alignment patterns intact → scannable) -->
  <g fill="#e01818" filter="url(#glow)">
    <rect x="81.7" y="81.7" width="18.3" height="18.3" rx="6.1"/>
    <rect x="103.6" y="81.7" width="18.3" height="18.3" rx="6.1"/>
    <rect x="125.4" y="81.7" width="18.3" height="18.3" rx="6.1"/>
    <rect x="147.2" y="81.7" width="18.3" height="18.3" rx="6.1"/>
    <rect x="169.0" y="81.7" width="18.3" height="18.3" rx="6.1"/>
    <rect x="190.8" y="81.7" width="18.3" height="18.3" rx="6.1"/>
    <rect x="212.7" y="81.7" width="18.3" height="18.3" rx="6.1"/>
    <rect x="278.1" y="81.7" width="18.3" height="18.3" rx="6.1"/>
    <rect x="321.7" y="81.7" width="18.3" height="18.3" rx="6.1"/>
    <rect x="452.7" y="81.7" width="18.3" height="18.3" rx="6.1"/>
    <rect x="474.5" y="81.7" width="18.3" height="18.3" rx="6.1"/>
    <rect x="496.3" y="81.7" width="18.3" height="18.3" rx="6.1"/>
    <rect x="539.9" y="81.7" width="18.3" height="18.3" rx="6.1"/>
    <rect x="561.7" y="81.7" width="18.3" height="18.3" rx="6.1"/>
    <rect x="605.4" y="81.7" width="18.3" height="18.3" rx="6.1"/>
    <rect x="649.0" y="81.7" width="18.3" height="18.3" rx="6.1"/>
    <rect x="670.8" y="81.7" width="18.3" height="18.3" rx="6.1"/>
    <rect x="692.7" y="81.7" width="18.3" height="18.3" rx="6.1"/>
    <rect x="714.5" y="81.7" width="18.3" height="18.3" rx="6.1"/>
    <rect x="736.3" y="81.7" width="18.3" height="18.3" rx="6.1"/>
    <rect x="758.1" y="81.7" width="18.3" height="18.3" rx="6.1"/>
    <rect x="779.9" y="81.7" width="18.3" height="18.3" rx="6.1"/>
    <rect x="81.7" y="103.6" width="18.3" height="18.3" rx="6.1"/>
    <rect x="212.7" y="103.6" width="18.3" height="18.3" rx="6.1"/>
    <rect x="278.1" y="103.6" width="18.3" height="18.3" rx="6.1"/>
    <rect x="365.4" y="103.6" width="18.3" height="18.3" rx="6.1"/>
    <rect x="409.0" y="103.6" width="18.3" height="18.3" rx="6.1"/>
    <rect x="452.7" y="103.6" width="18.3" height="18.3" rx="6.1"/>
    <rect x="518.1" y="103.6" width="18.3" height="18.3" rx="6.1"/>
    <rect x="561.7" y="103.6" width="18.3" height="18.3" rx="6.1"/>
    <rect x="605.4" y="103.6" width="18.3" height="18.3" rx="6.1"/>
    <rect x="649.0" y="103.6" width="18.3" height="18.3" rx="6.1"/>
    <rect x="779.9" y="103.6" width="18.3" height="18.3" rx="6.1"/>
    <rect x="81.7" y="125.4" width="18.3" height="18.3" rx="6.1"/>
    <rect x="125.4" y="125.4" width="18.3" height="18.3" rx="6.1"/>
    <rect x="147.2" y="125.4" width="18.3" height="18.3" rx="6.1"/>
    <rect x="169.0" y="125.4" width="18.3" height="18.3" rx="6.1"/>
    <rect x="212.7" y="125.4" width="18.3" height="18.3" rx="6.1"/>
    <rect x="256.3" y="125.4" width="18.3" height="18.3" rx="6.1"/>
    <rect x="278.1" y="125.4" width="18.3" height="18.3" rx="6.1"/>
    <rect x="321.7" y="125.4" width="18.3" height="18.3" rx="6.1"/>
    <rect x="365.4" y="125.4" width="18.3" height="18.3" rx="6.1"/>
    <rect x="409.0" y="125.4" width="18.3" height="18.3" rx="6.1"/>
    <rect x="452.7" y="125.4" width="18.3" height="18.3" rx="6.1"/>
    <rect x="474.5" y="125.4" width="18.3" height="18.3" rx="6.1"/>
    <rect x="496.3" y="125.4" width="18.3" height="18.3" rx="6.1"/>
    <rect x="539.9" y="125.4" width="18.3" height="18.3" rx="6.1"/>
    <rect x="561.7" y="125.4" width="18.3" height="18.3" rx="6.1"/>
    <rect x="583.6" y="125.4" width="18.3" height="18.3" rx="6.1"/>
    <rect x="605.4" y="125.4" width="18.3" height="18.3" rx="6.1"/>
    <rect x="649.0" y="125.4" width="18.3" height="18.3" rx="6.1"/>
    <rect x="692.7" y="125.4" width="18.3" height="18.3" rx="6.1"/>
    <rect x="714.5" y="125.4" width="18.3" height="18.3" rx="6.1"/>
    <rect x="736.3" y="125.4" width="18.3" height="18.3" rx="6.1"/>
    <rect x="779.9" y="125.4" width="18.3" height="18.3" rx="6.1"/>
    <rect x="81.7" y="147.2" width="18.3" height="18.3" rx="6.1"/>
    <rect x="125.4" y="147.2" width="18.3" height="18.3" rx="6.1"/>
    <rect x="147.2" y="147.2" width="18.3" height="18.3" rx="6.1"/>
    <rect x="169.0" y="147.2" width="18.3" height="18.3" rx="6.1"/>
    <rect x="212.7" y="147.2" width="18.3" height="18.3" rx="6.1"/>
    <rect x="256.3" y="147.2" width="18.3" height="18.3" rx="6.1"/>
    <rect x="299.9" y="147.2" width="18.3" height="18.3" rx="6.1"/>
    <rect x="343.6" y="147.2" width="18.3" height="18.3" rx="6.1"/>
    <rect x="365.4" y="147.2" width="18.3" height="18.3" rx="6.1"/>
    <rect x="430.8" y="147.2" width="18.3" height="18.3" rx="6.1"/>
    <rect x="474.5" y="147.2" width="18.3" height="18.3" rx="6.1"/>
    <rect x="496.3" y="147.2" width="18.3" height="18.3" rx="6.1"/>
    <rect x="518.1" y="147.2" width="18.3" height="18.3" rx="6.1"/>
    <rect x="539.9" y="147.2" width="18.3" height="18.3" rx="6.1"/>
    <rect x="583.6" y="147.2" width="18.3" height="18.3" rx="6.1"/>
    <rect x="605.4" y="147.2" width="18.3" height="18.3" rx="6.1"/>
    <rect x="649.0" y="147.2" width="18.3" height="18.3" rx="6.1"/>
    <rect x="692.7" y="147.2" width="18.3" height="18.3" rx="6.1"/>
    <rect x="714.5" y="147.2" width="18.3" height="18.3" rx="6.1"/>
    <rect x="736.3" y="147.2" width="18.3" height="18.3" rx="6.1"/>
    <rect x="779.9" y="147.2" width="18.3" height="18.3" rx="6.1"/>
    <rect x="81.7" y="169.0" width="18.3" height="18.3" rx="6.1"/>
    <rect x="125.4" y="169.0" width="18.3" height="18.3" rx="6.1"/>
    <rect x="147.2" y="169.0" width="18.3" height="18.3" rx="6.1"/>
    <rect x="169.0" y="169.0" width="18.3" height="18.3" rx="6.1"/>
    <rect x="212.7" y="169.0" width="18.3" height="18.3" rx="6.1"/>
    <rect x="278.1" y="169.0" width="18.3" height="18.3" rx="6.1"/>
    <rect x="343.6" y="169.0" width="18.3" height="18.3" rx="6.1"/>
    <rect x="409.0" y="169.0" width="18.3" height="18.3" rx="6.1"/>
    <rect x="430.8" y="169.0" width="18.3" height="18.3" rx="6.1"/>
    <rect x="474.5" y="169.0" width="18.3" height="18.3" rx="6.1"/>
    <rect x="496.3" y="169.0" width="18.3" height="18.3" rx="6.1"/>
    <rect x="583.6" y="169.0" width="18.3" height="18.3" rx="6.1"/>
    <rect x="649.0" y="169.0" width="18.3" height="18.3" rx="6.1"/>
    <rect x="692.7" y="169.0" width="18.3" height="18.3" rx="6.1"/>
    <rect x="714.5" y="169.0" width="18.3" height="18.3" rx="6.1"/>
    <rect x="736.3" y="169.0" width="18.3" height="18.3" rx="6.1"/>
    <rect x="779.9" y="169.0" width="18.3" height="18.3" rx="6.1"/>
    <rect x="81.7" y="190.8" width="18.3" height="18.3" rx="6.1"/>
    <rect x="212.7" y="190.8" width="18.3" height="18.3" rx="6.1"/>
    <rect x="278.1" y="190.8" width="18.3" height="18.3" rx="6.1"/>
    <rect x="299.9" y="190.8" width="18.3" height="18.3" rx="6.1"/>
    <rect x="321.7" y="190.8" width="18.3" height="18.3" rx="6.1"/>
    <rect x="343.6" y="190.8" width="18.3" height="18.3" rx="6.1"/>
    <rect x="365.4" y="190.8" width="18.3" height="18.3" rx="6.1"/>
    <rect x="387.2" y="190.8" width="18.3" height="18.3" rx="6.1"/>
    <rect x="409.0" y="190.8" width="18.3" height="18.3" rx="6.1"/>
    <rect x="518.1" y="190.8" width="18.3" height="18.3" rx="6.1"/>
    <rect x="605.4" y="190.8" width="18.3" height="18.3" rx="6.1"/>
    <rect x="649.0" y="190.8" width="18.3" height="18.3" rx="6.1"/>
    <rect x="779.9" y="190.8" width="18.3" height="18.3" rx="6.1"/>
    <rect x="81.7" y="212.7" width="18.3" height="18.3" rx="6.1"/>
    <rect x="103.6" y="212.7" width="18.3" height="18.3" rx="6.1"/>
    <rect x="125.4" y="212.7" width="18.3" height="18.3" rx="6.1"/>
    <rect x="147.2" y="212.7" width="18.3" height="18.3" rx="6.1"/>
    <rect x="169.0" y="212.7" width="18.3" height="18.3" rx="6.1"/>
    <rect x="190.8" y="212.7" width="18.3" height="18.3" rx="6.1"/>
    <rect x="212.7" y="212.7" width="18.3" height="18.3" rx="6.1"/>
    <rect x="256.3" y="212.7" width="18.3" height="18.3" rx="6.1"/>
    <rect x="299.9" y="212.7" width="18.3" height="18.3" rx="6.1"/>
    <rect x="343.6" y="212.7" width="18.3" height="18.3" rx="6.1"/>
    <rect x="387.2" y="212.7" width="18.3" height="18.3" rx="6.1"/>
    <rect x="430.8" y="212.7" width="18.3" height="18.3" rx="6.1"/>
    <rect x="474.5" y="212.7" width="18.3" height="18.3" rx="6.1"/>
    <rect x="518.1" y="212.7" width="18.3" height="18.3" rx="6.1"/>
    <rect x="561.7" y="212.7" width="18.3" height="18.3" rx="6.1"/>
    <rect x="605.4" y="212.7" width="18.3" height="18.3" rx="6.1"/>
    <rect x="649.0" y="212.7" width="18.3" height="18.3" rx="6.1"/>
    <rect x="670.8" y="212.7" width="18.3" height="18.3" rx="6.1"/>
    <rect x="692.7" y="212.7" width="18.3" height="18.3" rx="6.1"/>
    <rect x="714.5" y="212.7" width="18.3" height="18.3" rx="6.1"/>
    <rect x="736.3" y="212.7" width="18.3" height="18.3" rx="6.1"/>
    <rect x="758.1" y="212.7" width="18.3" height="18.3" rx="6.1"/>
    <rect x="779.9" y="212.7" width="18.3" height="18.3" rx="6.1"/>
    <rect x="278.1" y="234.5" width="18.3" height="18.3" rx="6.1"/>
    <rect x="343.6" y="234.5" width="18.3" height="18.3" rx="6.1"/>
    <rect x="365.4" y="234.5" width="18.3" height="18.3" rx="6.1"/>
    <rect x="387.2" y="234.5" width="18.3" height="18.3" rx="6.1"/>
    <rect x="430.8" y="234.5" width="18.3" height="18.3" rx="6.1"/>
    <rect x="518.1" y="234.5" width="18.3" height="18.3" rx="6.1"/>
    <rect x="583.6" y="234.5" width="18.3" height="18.3" rx="6.1"/>
    <rect x="147.2" y="256.3" width="18.3" height="18.3" rx="6.1"/>
    <rect x="169.0" y="256.3" width="18.3" height="18.3" rx="6.1"/>
    <rect x="212.7" y="256.3" width="18.3" height="18.3" rx="6.1"/>
    <rect x="234.5" y="256.3" width="18.3" height="18.3" rx="6.1"/>
    <rect x="278.1" y="256.3" width="18.3" height="18.3" rx="6.1"/>
    <rect x="387.2" y="256.3" width="18.3" height="18.3" rx="6.1"/>
    <rect x="430.8" y="256.3" width="18.3" height="18.3" rx="6.1"/>
    <rect x="452.7" y="256.3" width="18.3" height="18.3" rx="6.1"/>
    <rect x="496.3" y="256.3" width="18.3" height="18.3" rx="6.1"/>
    <rect x="518.1" y="256.3" width="18.3" height="18.3" rx="6.1"/>
    <rect x="561.7" y="256.3" width="18.3" height="18.3" rx="6.1"/>
    <rect x="583.6" y="256.3" width="18.3" height="18.3" rx="6.1"/>
    <rect x="605.4" y="256.3" width="18.3" height="18.3" rx="6.1"/>
    <rect x="714.5" y="256.3" width="18.3" height="18.3" rx="6.1"/>
    <rect x="736.3" y="256.3" width="18.3" height="18.3" rx="6.1"/>
    <rect x="103.6" y="278.1" width="18.3" height="18.3" rx="6.1"/>
    <rect x="169.0" y="278.1" width="18.3" height="18.3" rx="6.1"/>
    <rect x="190.8" y="278.1" width="18.3" height="18.3" rx="6.1"/>
    <rect x="256.3" y="278.1" width="18.3" height="18.3" rx="6.1"/>
    <rect x="278.1" y="278.1" width="18.3" height="18.3" rx="6.1"/>
    <rect x="299.9" y="278.1" width="18.3" height="18.3" rx="6.1"/>
    <rect x="321.7" y="278.1" width="18.3" height="18.3" rx="6.1"/>
    <rect x="365.4" y="278.1" width="18.3" height="18.3" rx="6.1"/>
    <rect x="387.2" y="278.1" width="18.3" height="18.3" rx="6.1"/>
    <rect x="409.0" y="278.1" width="18.3" height="18.3" rx="6.1"/>
    <rect x="430.8" y="278.1" width="18.3" height="18.3" rx="6.1"/>
    <rect x="452.7" y="278.1" width="18.3" height="18.3" rx="6.1"/>
    <rect x="474.5" y="278.1" width="18.3" height="18.3" rx="6.1"/>
    <rect x="518.1" y="278.1" width="18.3" height="18.3" rx="6.1"/>
    <rect x="561.7" y="278.1" width="18.3" height="18.3" rx="6.1"/>
    <rect x="583.6" y="278.1" width="18.3" height="18.3" rx="6.1"/>
    <rect x="627.2" y="278.1" width="18.3" height="18.3" rx="6.1"/>
    <rect x="670.8" y="278.1" width="18.3" height="18.3" rx="6.1"/>
    <rect x="692.7" y="278.1" width="18.3" height="18.3" rx="6.1"/>
    <rect x="714.5" y="278.1" width="18.3" height="18.3" rx="6.1"/>
    <rect x="103.6" y="299.9" width="18.3" height="18.3" rx="6.1"/>
    <rect x="212.7" y="299.9" width="18.3" height="18.3" rx="6.1"/>
    <rect x="299.9" y="299.9" width="18.3" height="18.3" rx="6.1"/>
    <rect x="365.4" y="299.9" width="18.3" height="18.3" rx="6.1"/>
    <rect x="409.0" y="299.9" width="18.3" height="18.3" rx="6.1"/>
    <rect x="430.8" y="299.9" width="18.3" height="18.3" rx="6.1"/>
    <rect x="474.5" y="299.9" width="18.3" height="18.3" rx="6.1"/>
    <rect x="539.9" y="299.9" width="18.3" height="18.3" rx="6.1"/>
    <rect x="583.6" y="299.9" width="18.3" height="18.3" rx="6.1"/>
    <rect x="649.0" y="299.9" width="18.3" height="18.3" rx="6.1"/>
    <rect x="670.8" y="299.9" width="18.3" height="18.3" rx="6.1"/>
    <rect x="714.5" y="299.9" width="18.3" height="18.3" rx="6.1"/>
    <rect x="758.1" y="299.9" width="18.3" height="18.3" rx="6.1"/>
    <rect x="779.9" y="299.9" width="18.3" height="18.3" rx="6.1"/>
    <rect x="103.6" y="321.7" width="18.3" height="18.3" rx="6.1"/>
    <rect x="125.4" y="321.7" width="18.3" height="18.3" rx="6.1"/>
    <rect x="321.7" y="321.7" width="18.3" height="18.3" rx="6.1"/>
    <rect x="430.8" y="321.7" width="18.3" height="18.3" rx="6.1"/>
    <rect x="496.3" y="321.7" width="18.3" height="18.3" rx="6.1"/>
    <rect x="583.6" y="321.7" width="18.3" height="18.3" rx="6.1"/>
    <rect x="627.2" y="321.7" width="18.3" height="18.3" rx="6.1"/>
    <rect x="649.0" y="321.7" width="18.3" height="18.3" rx="6.1"/>
    <rect x="670.8" y="321.7" width="18.3" height="18.3" rx="6.1"/>
    <rect x="692.7" y="321.7" width="18.3" height="18.3" rx="6.1"/>
    <rect x="736.3" y="321.7" width="18.3" height="18.3" rx="6.1"/>
    <rect x="169.0" y="343.6" width="18.3" height="18.3" rx="6.1"/>
    <rect x="212.7" y="343.6" width="18.3" height="18.3" rx="6.1"/>
    <rect x="234.5" y="343.6" width="18.3" height="18.3" rx="6.1"/>
    <rect x="278.1" y="343.6" width="18.3" height="18.3" rx="6.1"/>
    <rect x="299.9" y="343.6" width="18.3" height="18.3" rx="6.1"/>
    <rect x="387.2" y="343.6" width="18.3" height="18.3" rx="6.1"/>
    <rect x="409.0" y="343.6" width="18.3" height="18.3" rx="6.1"/>
    <rect x="430.8" y="343.6" width="18.3" height="18.3" rx="6.1"/>
    <rect x="539.9" y="343.6" width="18.3" height="18.3" rx="6.1"/>
    <rect x="561.7" y="343.6" width="18.3" height="18.3" rx="6.1"/>
    <rect x="583.6" y="343.6" width="18.3" height="18.3" rx="6.1"/>
    <rect x="649.0" y="343.6" width="18.3" height="18.3" rx="6.1"/>
    <rect x="670.8" y="343.6" width="18.3" height="18.3" rx="6.1"/>
    <rect x="692.7" y="343.6" width="18.3" height="18.3" rx="6.1"/>
    <rect x="758.1" y="343.6" width="18.3" height="18.3" rx="6.1"/>
    <rect x="103.6" y="365.4" width="18.3" height="18.3" rx="6.1"/>
    <rect x="147.2" y="365.4" width="18.3" height="18.3" rx="6.1"/>
    <rect x="169.0" y="365.4" width="18.3" height="18.3" rx="6.1"/>
    <rect x="343.6" y="365.4" width="18.3" height="18.3" rx="6.1"/>
    <rect x="430.8" y="365.4" width="18.3" height="18.3" rx="6.1"/>
    <rect x="452.7" y="365.4" width="18.3" height="18.3" rx="6.1"/>
    <rect x="496.3" y="365.4" width="18.3" height="18.3" rx="6.1"/>
    <rect x="518.1" y="365.4" width="18.3" height="18.3" rx="6.1"/>
    <rect x="539.9" y="365.4" width="18.3" height="18.3" rx="6.1"/>
    <rect x="561.7" y="365.4" width="18.3" height="18.3" rx="6.1"/>
    <rect x="583.6" y="365.4" width="18.3" height="18.3" rx="6.1"/>
    <rect x="627.2" y="365.4" width="18.3" height="18.3" rx="6.1"/>
    <rect x="736.3" y="365.4" width="18.3" height="18.3" rx="6.1"/>
    <rect x="758.1" y="365.4" width="18.3" height="18.3" rx="6.1"/>
    <rect x="125.4" y="387.2" width="18.3" height="18.3" rx="6.1"/>
    <rect x="169.0" y="387.2" width="18.3" height="18.3" rx="6.1"/>
    <rect x="212.7" y="387.2" width="18.3" height="18.3" rx="6.1"/>
    <rect x="409.0" y="387.2" width="18.3" height="18.3" rx="6.1"/>
    <rect x="474.5" y="387.2" width="18.3" height="18.3" rx="6.1"/>
    <rect x="605.4" y="387.2" width="18.3" height="18.3" rx="6.1"/>
    <rect x="627.2" y="387.2" width="18.3" height="18.3" rx="6.1"/>
    <rect x="736.3" y="387.2" width="18.3" height="18.3" rx="6.1"/>
    <rect x="147.2" y="409.0" width="18.3" height="18.3" rx="6.1"/>
    <rect x="365.4" y="409.0" width="18.3" height="18.3" rx="6.1"/>
    <rect x="387.2" y="409.0" width="18.3" height="18.3" rx="6.1"/>
    <rect x="452.7" y="409.0" width="18.3" height="18.3" rx="6.1"/>
    <rect x="583.6" y="409.0" width="18.3" height="18.3" rx="6.1"/>
    <rect x="670.8" y="409.0" width="18.3" height="18.3" rx="6.1"/>
    <rect x="714.5" y="409.0" width="18.3" height="18.3" rx="6.1"/>
    <rect x="736.3" y="409.0" width="18.3" height="18.3" rx="6.1"/>
    <rect x="758.1" y="409.0" width="18.3" height="18.3" rx="6.1"/>
    <rect x="779.9" y="409.0" width="18.3" height="18.3" rx="6.1"/>
    <rect x="81.7" y="430.8" width="18.3" height="18.3" rx="6.1"/>
    <rect x="103.6" y="430.8" width="18.3" height="18.3" rx="6.1"/>
    <rect x="125.4" y="430.8" width="18.3" height="18.3" rx="6.1"/>
    <rect x="147.2" y="430.8" width="18.3" height="18.3" rx="6.1"/>
    <rect x="190.8" y="430.8" width="18.3" height="18.3" rx="6.1"/>
    <rect x="212.7" y="430.8" width="18.3" height="18.3" rx="6.1"/>
    <rect x="278.1" y="430.8" width="18.3" height="18.3" rx="6.1"/>
    <rect x="299.9" y="430.8" width="18.3" height="18.3" rx="6.1"/>
    <rect x="365.4" y="430.8" width="18.3" height="18.3" rx="6.1"/>
    <rect x="409.0" y="430.8" width="18.3" height="18.3" rx="6.1"/>
    <rect x="430.8" y="430.8" width="18.3" height="18.3" rx="6.1"/>
    <rect x="474.5" y="430.8" width="18.3" height="18.3" rx="6.1"/>
    <rect x="627.2" y="430.8" width="18.3" height="18.3" rx="6.1"/>
    <rect x="649.0" y="430.8" width="18.3" height="18.3" rx="6.1"/>
    <rect x="692.7" y="430.8" width="18.3" height="18.3" rx="6.1"/>
    <rect x="758.1" y="430.8" width="18.3" height="18.3" rx="6.1"/>
    <rect x="81.7" y="452.7" width="18.3" height="18.3" rx="6.1"/>
    <rect x="125.4" y="452.7" width="18.3" height="18.3" rx="6.1"/>
    <rect x="147.2" y="452.7" width="18.3" height="18.3" rx="6.1"/>
    <rect x="190.8" y="452.7" width="18.3" height="18.3" rx="6.1"/>
    <rect x="256.3" y="452.7" width="18.3" height="18.3" rx="6.1"/>
    <rect x="278.1" y="452.7" width="18.3" height="18.3" rx="6.1"/>
    <rect x="321.7" y="452.7" width="18.3" height="18.3" rx="6.1"/>
    <rect x="343.6" y="452.7" width="18.3" height="18.3" rx="6.1"/>
    <rect x="387.2" y="452.7" width="18.3" height="18.3" rx="6.1"/>
    <rect x="452.7" y="452.7" width="18.3" height="18.3" rx="6.1"/>
    <rect x="474.5" y="452.7" width="18.3" height="18.3" rx="6.1"/>
    <rect x="518.1" y="452.7" width="18.3" height="18.3" rx="6.1"/>
    <rect x="539.9" y="452.7" width="18.3" height="18.3" rx="6.1"/>
    <rect x="561.7" y="452.7" width="18.3" height="18.3" rx="6.1"/>
    <rect x="605.4" y="452.7" width="18.3" height="18.3" rx="6.1"/>
    <rect x="649.0" y="452.7" width="18.3" height="18.3" rx="6.1"/>
    <rect x="670.8" y="452.7" width="18.3" height="18.3" rx="6.1"/>
    <rect x="692.7" y="452.7" width="18.3" height="18.3" rx="6.1"/>
    <rect x="714.5" y="452.7" width="18.3" height="18.3" rx="6.1"/>
    <rect x="758.1" y="452.7" width="18.3" height="18.3" rx="6.1"/>
    <rect x="779.9" y="452.7" width="18.3" height="18.3" rx="6.1"/>
    <rect x="81.7" y="474.5" width="18.3" height="18.3" rx="6.1"/>
    <rect x="169.0" y="474.5" width="18.3" height="18.3" rx="6.1"/>
    <rect x="190.8" y="474.5" width="18.3" height="18.3" rx="6.1"/>
    <rect x="212.7" y="474.5" width="18.3" height="18.3" rx="6.1"/>
    <rect x="256.3" y="474.5" width="18.3" height="18.3" rx="6.1"/>
    <rect x="278.1" y="474.5" width="18.3" height="18.3" rx="6.1"/>
    <rect x="321.7" y="474.5" width="18.3" height="18.3" rx="6.1"/>
    <rect x="365.4" y="474.5" width="18.3" height="18.3" rx="6.1"/>
    <rect x="387.2" y="474.5" width="18.3" height="18.3" rx="6.1"/>
    <rect x="409.0" y="474.5" width="18.3" height="18.3" rx="6.1"/>
    <rect x="452.7" y="474.5" width="18.3" height="18.3" rx="6.1"/>
    <rect x="518.1" y="474.5" width="18.3" height="18.3" rx="6.1"/>
    <rect x="539.9" y="474.5" width="18.3" height="18.3" rx="6.1"/>
    <rect x="561.7" y="474.5" width="18.3" height="18.3" rx="6.1"/>
    <rect x="583.6" y="474.5" width="18.3" height="18.3" rx="6.1"/>
    <rect x="692.7" y="474.5" width="18.3" height="18.3" rx="6.1"/>
    <rect x="714.5" y="474.5" width="18.3" height="18.3" rx="6.1"/>
    <rect x="736.3" y="474.5" width="18.3" height="18.3" rx="6.1"/>
    <rect x="779.9" y="474.5" width="18.3" height="18.3" rx="6.1"/>
    <rect x="81.7" y="496.3" width="18.3" height="18.3" rx="6.1"/>
    <rect x="103.6" y="496.3" width="18.3" height="18.3" rx="6.1"/>
    <rect x="190.8" y="496.3" width="18.3" height="18.3" rx="6.1"/>
    <rect x="234.5" y="496.3" width="18.3" height="18.3" rx="6.1"/>
    <rect x="256.3" y="496.3" width="18.3" height="18.3" rx="6.1"/>
    <rect x="278.1" y="496.3" width="18.3" height="18.3" rx="6.1"/>
    <rect x="321.7" y="496.3" width="18.3" height="18.3" rx="6.1"/>
    <rect x="343.6" y="496.3" width="18.3" height="18.3" rx="6.1"/>
    <rect x="409.0" y="496.3" width="18.3" height="18.3" rx="6.1"/>
    <rect x="474.5" y="496.3" width="18.3" height="18.3" rx="6.1"/>
    <rect x="496.3" y="496.3" width="18.3" height="18.3" rx="6.1"/>
    <rect x="561.7" y="496.3" width="18.3" height="18.3" rx="6.1"/>
    <rect x="583.6" y="496.3" width="18.3" height="18.3" rx="6.1"/>
    <rect x="605.4" y="496.3" width="18.3" height="18.3" rx="6.1"/>
    <rect x="627.2" y="496.3" width="18.3" height="18.3" rx="6.1"/>
    <rect x="670.8" y="496.3" width="18.3" height="18.3" rx="6.1"/>
    <rect x="714.5" y="496.3" width="18.3" height="18.3" rx="6.1"/>
    <rect x="736.3" y="496.3" width="18.3" height="18.3" rx="6.1"/>
    <rect x="779.9" y="496.3" width="18.3" height="18.3" rx="6.1"/>
    <rect x="81.7" y="518.1" width="18.3" height="18.3" rx="6.1"/>
    <rect x="103.6" y="518.1" width="18.3" height="18.3" rx="6.1"/>
    <rect x="125.4" y="518.1" width="18.3" height="18.3" rx="6.1"/>
    <rect x="147.2" y="518.1" width="18.3" height="18.3" rx="6.1"/>
    <rect x="169.0" y="518.1" width="18.3" height="18.3" rx="6.1"/>
    <rect x="190.8" y="518.1" width="18.3" height="18.3" rx="6.1"/>
    <rect x="212.7" y="518.1" width="18.3" height="18.3" rx="6.1"/>
    <rect x="234.5" y="518.1" width="18.3" height="18.3" rx="6.1"/>
    <rect x="256.3" y="518.1" width="18.3" height="18.3" rx="6.1"/>
    <rect x="365.4" y="518.1" width="18.3" height="18.3" rx="6.1"/>
    <rect x="387.2" y="518.1" width="18.3" height="18.3" rx="6.1"/>
    <rect x="409.0" y="518.1" width="18.3" height="18.3" rx="6.1"/>
    <rect x="430.8" y="518.1" width="18.3" height="18.3" rx="6.1"/>
    <rect x="474.5" y="518.1" width="18.3" height="18.3" rx="6.1"/>
    <rect x="496.3" y="518.1" width="18.3" height="18.3" rx="6.1"/>
    <rect x="649.0" y="518.1" width="18.3" height="18.3" rx="6.1"/>
    <rect x="670.8" y="518.1" width="18.3" height="18.3" rx="6.1"/>
    <rect x="714.5" y="518.1" width="18.3" height="18.3" rx="6.1"/>
    <rect x="758.1" y="518.1" width="18.3" height="18.3" rx="6.1"/>
    <rect x="81.7" y="539.9" width="18.3" height="18.3" rx="6.1"/>
    <rect x="103.6" y="539.9" width="18.3" height="18.3" rx="6.1"/>
    <rect x="147.2" y="539.9" width="18.3" height="18.3" rx="6.1"/>
    <rect x="169.0" y="539.9" width="18.3" height="18.3" rx="6.1"/>
    <rect x="190.8" y="539.9" width="18.3" height="18.3" rx="6.1"/>
    <rect x="234.5" y="539.9" width="18.3" height="18.3" rx="6.1"/>
    <rect x="256.3" y="539.9" width="18.3" height="18.3" rx="6.1"/>
    <rect x="299.9" y="539.9" width="18.3" height="18.3" rx="6.1"/>
    <rect x="321.7" y="539.9" width="18.3" height="18.3" rx="6.1"/>
    <rect x="365.4" y="539.9" width="18.3" height="18.3" rx="6.1"/>
    <rect x="387.2" y="539.9" width="18.3" height="18.3" rx="6.1"/>
    <rect x="430.8" y="539.9" width="18.3" height="18.3" rx="6.1"/>
    <rect x="452.7" y="539.9" width="18.3" height="18.3" rx="6.1"/>
    <rect x="496.3" y="539.9" width="18.3" height="18.3" rx="6.1"/>
    <rect x="539.9" y="539.9" width="18.3" height="18.3" rx="6.1"/>
    <rect x="561.7" y="539.9" width="18.3" height="18.3" rx="6.1"/>
    <rect x="605.4" y="539.9" width="18.3" height="18.3" rx="6.1"/>
    <rect x="649.0" y="539.9" width="18.3" height="18.3" rx="6.1"/>
    <rect x="670.8" y="539.9" width="18.3" height="18.3" rx="6.1"/>
    <rect x="692.7" y="539.9" width="18.3" height="18.3" rx="6.1"/>
    <rect x="81.7" y="561.7" width="18.3" height="18.3" rx="6.1"/>
    <rect x="125.4" y="561.7" width="18.3" height="18.3" rx="6.1"/>
    <rect x="147.2" y="561.7" width="18.3" height="18.3" rx="6.1"/>
    <rect x="169.0" y="561.7" width="18.3" height="18.3" rx="6.1"/>
    <rect x="190.8" y="561.7" width="18.3" height="18.3" rx="6.1"/>
    <rect x="212.7" y="561.7" width="18.3" height="18.3" rx="6.1"/>
    <rect x="234.5" y="561.7" width="18.3" height="18.3" rx="6.1"/>
    <rect x="365.4" y="561.7" width="18.3" height="18.3" rx="6.1"/>
    <rect x="430.8" y="561.7" width="18.3" height="18.3" rx="6.1"/>
    <rect x="452.7" y="561.7" width="18.3" height="18.3" rx="6.1"/>
    <rect x="474.5" y="561.7" width="18.3" height="18.3" rx="6.1"/>
    <rect x="496.3" y="561.7" width="18.3" height="18.3" rx="6.1"/>
    <rect x="561.7" y="561.7" width="18.3" height="18.3" rx="6.1"/>
    <rect x="583.6" y="561.7" width="18.3" height="18.3" rx="6.1"/>
    <rect x="649.0" y="561.7" width="18.3" height="18.3" rx="6.1"/>
    <rect x="736.3" y="561.7" width="18.3" height="18.3" rx="6.1"/>
    <rect x="779.9" y="561.7" width="18.3" height="18.3" rx="6.1"/>
    <rect x="81.7" y="583.6" width="18.3" height="18.3" rx="6.1"/>
    <rect x="234.5" y="583.6" width="18.3" height="18.3" rx="6.1"/>
    <rect x="278.1" y="583.6" width="18.3" height="18.3" rx="6.1"/>
    <rect x="299.9" y="583.6" width="18.3" height="18.3" rx="6.1"/>
    <rect x="430.8" y="583.6" width="18.3" height="18.3" rx="6.1"/>
    <rect x="474.5" y="583.6" width="18.3" height="18.3" rx="6.1"/>
    <rect x="496.3" y="583.6" width="18.3" height="18.3" rx="6.1"/>
    <rect x="561.7" y="583.6" width="18.3" height="18.3" rx="6.1"/>
    <rect x="583.6" y="583.6" width="18.3" height="18.3" rx="6.1"/>
    <rect x="605.4" y="583.6" width="18.3" height="18.3" rx="6.1"/>
    <rect x="670.8" y="583.6" width="18.3" height="18.3" rx="6.1"/>
    <rect x="714.5" y="583.6" width="18.3" height="18.3" rx="6.1"/>
    <rect x="736.3" y="583.6" width="18.3" height="18.3" rx="6.1"/>
    <rect x="758.1" y="583.6" width="18.3" height="18.3" rx="6.1"/>
    <rect x="779.9" y="583.6" width="18.3" height="18.3" rx="6.1"/>
    <rect x="81.7" y="605.4" width="18.3" height="18.3" rx="6.1"/>
    <rect x="103.6" y="605.4" width="18.3" height="18.3" rx="6.1"/>
    <rect x="147.2" y="605.4" width="18.3" height="18.3" rx="6.1"/>
    <rect x="169.0" y="605.4" width="18.3" height="18.3" rx="6.1"/>
    <rect x="212.7" y="605.4" width="18.3" height="18.3" rx="6.1"/>
    <rect x="278.1" y="605.4" width="18.3" height="18.3" rx="6.1"/>
    <rect x="299.9" y="605.4" width="18.3" height="18.3" rx="6.1"/>
    <rect x="321.7" y="605.4" width="18.3" height="18.3" rx="6.1"/>
    <rect x="343.6" y="605.4" width="18.3" height="18.3" rx="6.1"/>
    <rect x="387.2" y="605.4" width="18.3" height="18.3" rx="6.1"/>
    <rect x="430.8" y="605.4" width="18.3" height="18.3" rx="6.1"/>
    <rect x="474.5" y="605.4" width="18.3" height="18.3" rx="6.1"/>
    <rect x="518.1" y="605.4" width="18.3" height="18.3" rx="6.1"/>
    <rect x="583.6" y="605.4" width="18.3" height="18.3" rx="6.1"/>
    <rect x="605.4" y="605.4" width="18.3" height="18.3" rx="6.1"/>
    <rect x="627.2" y="605.4" width="18.3" height="18.3" rx="6.1"/>
    <rect x="649.0" y="605.4" width="18.3" height="18.3" rx="6.1"/>
    <rect x="670.8" y="605.4" width="18.3" height="18.3" rx="6.1"/>
    <rect x="692.7" y="605.4" width="18.3" height="18.3" rx="6.1"/>
    <rect x="714.5" y="605.4" width="18.3" height="18.3" rx="6.1"/>
    <rect x="758.1" y="605.4" width="18.3" height="18.3" rx="6.1"/>
    <rect x="256.3" y="627.2" width="18.3" height="18.3" rx="6.1"/>
    <rect x="278.1" y="627.2" width="18.3" height="18.3" rx="6.1"/>
    <rect x="299.9" y="627.2" width="18.3" height="18.3" rx="6.1"/>
    <rect x="321.7" y="627.2" width="18.3" height="18.3" rx="6.1"/>
    <rect x="343.6" y="627.2" width="18.3" height="18.3" rx="6.1"/>
    <rect x="365.4" y="627.2" width="18.3" height="18.3" rx="6.1"/>
    <rect x="409.0" y="627.2" width="18.3" height="18.3" rx="6.1"/>
    <rect x="430.8" y="627.2" width="18.3" height="18.3" rx="6.1"/>
    <rect x="496.3" y="627.2" width="18.3" height="18.3" rx="6.1"/>
    <rect x="539.9" y="627.2" width="18.3" height="18.3" rx="6.1"/>
    <rect x="605.4" y="627.2" width="18.3" height="18.3" rx="6.1"/>
    <rect x="692.7" y="627.2" width="18.3" height="18.3" rx="6.1"/>
    <rect x="714.5" y="627.2" width="18.3" height="18.3" rx="6.1"/>
    <rect x="736.3" y="627.2" width="18.3" height="18.3" rx="6.1"/>
    <rect x="758.1" y="627.2" width="18.3" height="18.3" rx="6.1"/>
    <rect x="81.7" y="649.0" width="18.3" height="18.3" rx="6.1"/>
    <rect x="103.6" y="649.0" width="18.3" height="18.3" rx="6.1"/>
    <rect x="125.4" y="649.0" width="18.3" height="18.3" rx="6.1"/>
    <rect x="147.2" y="649.0" width="18.3" height="18.3" rx="6.1"/>
    <rect x="169.0" y="649.0" width="18.3" height="18.3" rx="6.1"/>
    <rect x="190.8" y="649.0" width="18.3" height="18.3" rx="6.1"/>
    <rect x="212.7" y="649.0" width="18.3" height="18.3" rx="6.1"/>
    <rect x="256.3" y="649.0" width="18.3" height="18.3" rx="6.1"/>
    <rect x="278.1" y="649.0" width="18.3" height="18.3" rx="6.1"/>
    <rect x="299.9" y="649.0" width="18.3" height="18.3" rx="6.1"/>
    <rect x="387.2" y="649.0" width="18.3" height="18.3" rx="6.1"/>
    <rect x="430.8" y="649.0" width="18.3" height="18.3" rx="6.1"/>
    <rect x="474.5" y="649.0" width="18.3" height="18.3" rx="6.1"/>
    <rect x="583.6" y="649.0" width="18.3" height="18.3" rx="6.1"/>
    <rect x="605.4" y="649.0" width="18.3" height="18.3" rx="6.1"/>
    <rect x="649.0" y="649.0" width="18.3" height="18.3" rx="6.1"/>
    <rect x="692.7" y="649.0" width="18.3" height="18.3" rx="6.1"/>
    <rect x="81.7" y="670.8" width="18.3" height="18.3" rx="6.1"/>
    <rect x="212.7" y="670.8" width="18.3" height="18.3" rx="6.1"/>
    <rect x="321.7" y="670.8" width="18.3" height="18.3" rx="6.1"/>
    <rect x="430.8" y="670.8" width="18.3" height="18.3" rx="6.1"/>
    <rect x="496.3" y="670.8" width="18.3" height="18.3" rx="6.1"/>
    <rect x="518.1" y="670.8" width="18.3" height="18.3" rx="6.1"/>
    <rect x="539.9" y="670.8" width="18.3" height="18.3" rx="6.1"/>
    <rect x="561.7" y="670.8" width="18.3" height="18.3" rx="6.1"/>
    <rect x="583.6" y="670.8" width="18.3" height="18.3" rx="6.1"/>
    <rect x="605.4" y="670.8" width="18.3" height="18.3" rx="6.1"/>
    <rect x="692.7" y="670.8" width="18.3" height="18.3" rx="6.1"/>
    <rect x="714.5" y="670.8" width="18.3" height="18.3" rx="6.1"/>
    <rect x="736.3" y="670.8" width="18.3" height="18.3" rx="6.1"/>
    <rect x="758.1" y="670.8" width="18.3" height="18.3" rx="6.1"/>
    <rect x="81.7" y="692.7" width="18.3" height="18.3" rx="6.1"/>
    <rect x="125.4" y="692.7" width="18.3" height="18.3" rx="6.1"/>
    <rect x="147.2" y="692.7" width="18.3" height="18.3" rx="6.1"/>
    <rect x="169.0" y="692.7" width="18.3" height="18.3" rx="6.1"/>
    <rect x="212.7" y="692.7" width="18.3" height="18.3" rx="6.1"/>
    <rect x="256.3" y="692.7" width="18.3" height="18.3" rx="6.1"/>
    <rect x="299.9" y="692.7" width="18.3" height="18.3" rx="6.1"/>
    <rect x="343.6" y="692.7" width="18.3" height="18.3" rx="6.1"/>
    <rect x="365.4" y="692.7" width="18.3" height="18.3" rx="6.1"/>
    <rect x="409.0" y="692.7" width="18.3" height="18.3" rx="6.1"/>
    <rect x="496.3" y="692.7" width="18.3" height="18.3" rx="6.1"/>
    <rect x="518.1" y="692.7" width="18.3" height="18.3" rx="6.1"/>
    <rect x="539.9" y="692.7" width="18.3" height="18.3" rx="6.1"/>
    <rect x="561.7" y="692.7" width="18.3" height="18.3" rx="6.1"/>
    <rect x="583.6" y="692.7" width="18.3" height="18.3" rx="6.1"/>
    <rect x="605.4" y="692.7" width="18.3" height="18.3" rx="6.1"/>
    <rect x="627.2" y="692.7" width="18.3" height="18.3" rx="6.1"/>
    <rect x="649.0" y="692.7" width="18.3" height="18.3" rx="6.1"/>
    <rect x="670.8" y="692.7" width="18.3" height="18.3" rx="6.1"/>
    <rect x="692.7" y="692.7" width="18.3" height="18.3" rx="6.1"/>
    <rect x="714.5" y="692.7" width="18.3" height="18.3" rx="6.1"/>
    <rect x="758.1" y="692.7" width="18.3" height="18.3" rx="6.1"/>
    <rect x="81.7" y="714.5" width="18.3" height="18.3" rx="6.1"/>
    <rect x="125.4" y="714.5" width="18.3" height="18.3" rx="6.1"/>
    <rect x="147.2" y="714.5" width="18.3" height="18.3" rx="6.1"/>
    <rect x="169.0" y="714.5" width="18.3" height="18.3" rx="6.1"/>
    <rect x="212.7" y="714.5" width="18.3" height="18.3" rx="6.1"/>
    <rect x="256.3" y="714.5" width="18.3" height="18.3" rx="6.1"/>
    <rect x="278.1" y="714.5" width="18.3" height="18.3" rx="6.1"/>
    <rect x="343.6" y="714.5" width="18.3" height="18.3" rx="6.1"/>
    <rect x="365.4" y="714.5" width="18.3" height="18.3" rx="6.1"/>
    <rect x="409.0" y="714.5" width="18.3" height="18.3" rx="6.1"/>
    <rect x="474.5" y="714.5" width="18.3" height="18.3" rx="6.1"/>
    <rect x="539.9" y="714.5" width="18.3" height="18.3" rx="6.1"/>
    <rect x="561.7" y="714.5" width="18.3" height="18.3" rx="6.1"/>
    <rect x="627.2" y="714.5" width="18.3" height="18.3" rx="6.1"/>
    <rect x="670.8" y="714.5" width="18.3" height="18.3" rx="6.1"/>
    <rect x="714.5" y="714.5" width="18.3" height="18.3" rx="6.1"/>
    <rect x="736.3" y="714.5" width="18.3" height="18.3" rx="6.1"/>
    <rect x="758.1" y="714.5" width="18.3" height="18.3" rx="6.1"/>
    <rect x="81.7" y="736.3" width="18.3" height="18.3" rx="6.1"/>
    <rect x="125.4" y="736.3" width="18.3" height="18.3" rx="6.1"/>
    <rect x="147.2" y="736.3" width="18.3" height="18.3" rx="6.1"/>
    <rect x="169.0" y="736.3" width="18.3" height="18.3" rx="6.1"/>
    <rect x="212.7" y="736.3" width="18.3" height="18.3" rx="6.1"/>
    <rect x="278.1" y="736.3" width="18.3" height="18.3" rx="6.1"/>
    <rect x="321.7" y="736.3" width="18.3" height="18.3" rx="6.1"/>
    <rect x="343.6" y="736.3" width="18.3" height="18.3" rx="6.1"/>
    <rect x="387.2" y="736.3" width="18.3" height="18.3" rx="6.1"/>
    <rect x="430.8" y="736.3" width="18.3" height="18.3" rx="6.1"/>
    <rect x="452.7" y="736.3" width="18.3" height="18.3" rx="6.1"/>
    <rect x="474.5" y="736.3" width="18.3" height="18.3" rx="6.1"/>
    <rect x="496.3" y="736.3" width="18.3" height="18.3" rx="6.1"/>
    <rect x="561.7" y="736.3" width="18.3" height="18.3" rx="6.1"/>
    <rect x="583.6" y="736.3" width="18.3" height="18.3" rx="6.1"/>
    <rect x="605.4" y="736.3" width="18.3" height="18.3" rx="6.1"/>
    <rect x="692.7" y="736.3" width="18.3" height="18.3" rx="6.1"/>
    <rect x="714.5" y="736.3" width="18.3" height="18.3" rx="6.1"/>
    <rect x="736.3" y="736.3" width="18.3" height="18.3" rx="6.1"/>
    <rect x="758.1" y="736.3" width="18.3" height="18.3" rx="6.1"/>
    <rect x="779.9" y="736.3" width="18.3" height="18.3" rx="6.1"/>
    <rect x="81.7" y="758.1" width="18.3" height="18.3" rx="6.1"/>
    <rect x="212.7" y="758.1" width="18.3" height="18.3" rx="6.1"/>
    <rect x="365.4" y="758.1" width="18.3" height="18.3" rx="6.1"/>
    <rect x="387.2" y="758.1" width="18.3" height="18.3" rx="6.1"/>
    <rect x="409.0" y="758.1" width="18.3" height="18.3" rx="6.1"/>
    <rect x="496.3" y="758.1" width="18.3" height="18.3" rx="6.1"/>
    <rect x="518.1" y="758.1" width="18.3" height="18.3" rx="6.1"/>
    <rect x="539.9" y="758.1" width="18.3" height="18.3" rx="6.1"/>
    <rect x="627.2" y="758.1" width="18.3" height="18.3" rx="6.1"/>
    <rect x="649.0" y="758.1" width="18.3" height="18.3" rx="6.1"/>
    <rect x="736.3" y="758.1" width="18.3" height="18.3" rx="6.1"/>
    <rect x="758.1" y="758.1" width="18.3" height="18.3" rx="6.1"/>
    <rect x="779.9" y="758.1" width="18.3" height="18.3" rx="6.1"/>
    <rect x="81.7" y="779.9" width="18.3" height="18.3" rx="6.1"/>
    <rect x="103.6" y="779.9" width="18.3" height="18.3" rx="6.1"/>
    <rect x="125.4" y="779.9" width="18.3" height="18.3" rx="6.1"/>
    <rect x="147.2" y="779.9" width="18.3" height="18.3" rx="6.1"/>
    <rect x="169.0" y="779.9" width="18.3" height="18.3" rx="6.1"/>
    <rect x="190.8" y="779.9" width="18.3" height="18.3" rx="6.1"/>
    <rect x="212.7" y="779.9" width="18.3" height="18.3" rx="6.1"/>
    <rect x="278.1" y="779.9" width="18.3" height="18.3" rx="6.1"/>
    <rect x="299.9" y="779.9" width="18.3" height="18.3" rx="6.1"/>
    <rect x="343.6" y="779.9" width="18.3" height="18.3" rx="6.1"/>
    <rect x="365.4" y="779.9" width="18.3" height="18.3" rx="6.1"/>
    <rect x="409.0" y="779.9" width="18.3" height="18.3" rx="6.1"/>
    <rect x="474.5" y="779.9" width="18.3" height="18.3" rx="6.1"/>
    <rect x="496.3" y="779.9" width="18.3" height="18.3" rx="6.1"/>
    <rect x="518.1" y="779.9" width="18.3" height="18.3" rx="6.1"/>
    <rect x="539.9" y="779.9" width="18.3" height="18.3" rx="6.1"/>
    <rect x="583.6" y="779.9" width="18.3" height="18.3" rx="6.1"/>
    <rect x="605.4" y="779.9" width="18.3" height="18.3" rx="6.1"/>
    <rect x="692.7" y="779.9" width="18.3" height="18.3" rx="6.1"/>
  </g>

  <!-- 3. Clear zone behind the hand icon so QR modules don't clash -->
  <rect x="327.2" y="312.8"
        width="225.60000000000002" height="254.4"
        rx="16" fill="#060606"/>

  <!-- 4. Middle finger icon (centered, red, matching QR style) -->
  <path d="M232 0c-22.1 0-40 17.9-40 40v164.2c-8.5-7.6-19.7-12.2-32-12.2c-26.5 0-48 21.5-48 48v80c0 8.8-7.2 16-16 16s-16-7.2-16-16v-55.7c-2 1.4-3.9 3-5.8 4.5l-19.2 16C40.4 297 32 315 32 334v38c0 38 16.9 74 46.1 98.3l5.4 4.5c28.8 24 65 37.1 102.4 37.1l118.1.1c70.7 0 128-57.3 128-128v-96c0-26.5-21.5-48-48-48c-12.4 0-23.6 4.7-32.1 12.3C350 227.5 329.3 208 304 208c-12.3 0-23.5 4.6-32 12.2V40c0-22.1-17.9-40-40-40" fill="#e01818"
        transform="translate(339.2,324.8) scale(0.4500,0.4500)"/>

  <!-- 5. Subtle outline around the icon -->
  <path d="M232 0c-22.1 0-40 17.9-40 40v164.2c-8.5-7.6-19.7-12.2-32-12.2c-26.5 0-48 21.5-48 48v80c0 8.8-7.2 16-16 16s-16-7.2-16-16v-55.7c-2 1.4-3.9 3-5.8 4.5l-19.2 16C40.4 297 32 315 32 334v38c0 38 16.9 74 46.1 98.3l5.4 4.5c28.8 24 65 37.1 102.4 37.1l118.1.1c70.7 0 128-57.3 128-128v-96c0-26.5-21.5-48-48-48c-12.4 0-23.6 4.7-32.1 12.3C350 227.5 329.3 208 304 208c-12.3 0-23.5 4.6-32 12.2V40c0-22.1-17.9-40-40-40" fill="none" stroke="#6e1515" stroke-width="4.4"
        transform="translate(339.2,324.8) scale(0.4500,0.4500)"/>
</svg>